<svg viewBox="0 0 56.84 32.71" xmlns="http://www.w3.org/2000/svg" id="Layer_1">
  <defs>
    <style>
      .cls-1 {
        fill: #3a3a1f;
      }
    </style>
  </defs>
  <path d="m9.66,22c0-.75-7.89-.84-9.66-.96v2.57c1.48-.11,9.66-.82,9.66-1.61Z" class="cls-1"></path>
  <path d="m9.66,18.1c0-.74-7.72-1.08-9.66-1.25v2.78c1.55-.11,9.66-.75,9.66-1.52Z" class="cls-1"></path>
  <path d="m0,0v7.2c1.63-.11,9.79-.71,9.79-1.3,0-.65-4.1-1.03-4.1-1.03l.94-1.17s5.98.42,5.98,2.25c0,1.4-4.53,1.97-4.53,1.97,0,0,4.57.78,4.57,2.01,0,1.6-4.34,2.06-4.34,2.06,0,0,4.47.66,4.47,1.92,0,1.47-4.82,2.15-4.82,2.15,0,0,4.93.8,4.93,1.87,0,1.36-4.63,2.13-4.63,2.13,0,0,4.69.37,4.69,1.84,0,1.64-4.3,2.23-4.3,2.23,0,0,.54.08,1.24.23,1.99.37,3.31,1.02,3.31,1.79,0,0,.12.11.12.11v6.46h3.33V0H0Z" class="cls-1"></path>
  <path d="m9.66,9.95c0-.75-7.8-1.12-9.66-1.3v2.75c2.02-.13,9.66-.68,9.66-1.45Z" class="cls-1"></path>
  <path d="m9.74,14.03c0-.73-7.64-.84-9.74-1.12v2.51c1.74-.11,9.74-.64,9.74-1.39Z" class="cls-1"></path>
  <path d="m25.14,32.63l-.73-1.64h-3.41l-.73,1.64h-.45l2.69-5.91h.41l2.69,5.91h-.47Zm-2.43-5.44l-1.53,3.4h3.04l-1.52-3.4Z" class="cls-1"></path>
  <path d="m31.6,32.67h-.35l-1.69-5.1-1.69,5.1h-.35l-2.1-5.91h.48l1.81,5.23,1.69-5.24h.33l1.69,5.24,1.81-5.23h.45l-2.1,5.91Z" class="cls-1"></path>
  <path d="m38.85,32.63l-.73-1.64h-3.41l-.73,1.64h-.45l2.69-5.91h.41l2.69,5.91h-.47Zm-2.43-5.44l-1.53,3.4h3.04l-1.52-3.4Z" class="cls-1"></path>
  <path d="m44.32,32.63l-1.84-2.43h-1.89v2.43h-.43v-5.87h2.42c1.25,0,2.06.69,2.06,1.67v.02c0,.98-.72,1.54-1.69,1.68l1.91,2.51h-.54Zm-.1-4.19c0-.79-.61-1.28-1.66-1.28h-1.97v2.64h1.95c.96,0,1.68-.49,1.68-1.34v-.02Z" class="cls-1"></path>
  <path d="m47.85,32.63h-1.92v-5.87h1.92c1.81,0,3.07,1.27,3.07,2.92v.02c0,1.65-1.25,2.94-3.07,2.94Zm2.62-2.94c0-1.39-1.01-2.53-2.62-2.53h-1.49v5.07h1.49c1.61,0,2.62-1.12,2.62-2.52v-.02Z" class="cls-1"></path>
  <path d="m54.04,32.71c-.92,0-1.63-.31-2.33-.94l.28-.33c.64.6,1.22.87,2.07.87s1.46-.49,1.46-1.17v-.02c0-.62-.32-.98-1.63-1.25-1.39-.29-1.95-.76-1.95-1.65v-.02c0-.87.78-1.54,1.86-1.54.84,0,1.39.23,1.98.71l-.27.34c-.54-.48-1.09-.66-1.72-.66-.85,0-1.41.5-1.41,1.11v.02c0,.62.31,1,1.68,1.28,1.34.28,1.9.76,1.9,1.62v.02c0,.95-.8,1.6-1.91,1.6Z" class="cls-1"></path>
  <path d="m21.72,9v5.47h-.43v-5.47h-2.01v-.4h4.45v.4h-2.01Z" class="cls-1"></path>
  <path d="m28.79,14.47v-2.75h-3.7v2.75h-.43v-5.87h.43v2.72h3.7v-2.72h.43v5.87h-.43Z" class="cls-1"></path>
  <path d="m30.73,14.47v-5.87h4.11v.4h-3.68v2.31h3.31v.4h-3.31v2.36h3.72v.4h-4.15Z" class="cls-1"></path>
  <path d="m25.44,17.41c.2.73.4,1.46.61,2.19.37,1.31.43,1.52.64,2.83.2-1.34.25-1.57.55-2.95.14-.69.29-1.38.43-2.06h1.65l-1.69,6.77h-1.72c-.21-.75-.41-1.5-.62-2.23-.36-1.25-.38-1.3-.57-2.24-.17.84-.19.9-.57,2.2l-.64,2.28h-1.72l-1.69-6.77h1.66c.72,3.21.79,3.57.99,5.04.25-1.34.31-1.6.66-2.94l.55-2.09h1.47Z" class="cls-1"></path>
  <path d="m36.18,22.35c-.22.34-.44.66-.77.97-.55.52-1.39.92-2.42.92-1.9,0-3.24-1.24-3.24-3.37,0-1.57.76-3.59,3.29-3.59.38,0,1.48.04,2.31.94.83.91.88,2.18.91,2.92h-4.58c-.01.81.44,1.62,1.46,1.62s1.39-.69,1.62-1.15l1.42.74Zm-1.88-2.41c-.04-.27-.09-.64-.36-.92-.23-.24-.59-.36-.92-.36-.45,0-.77.22-.96.42-.26.29-.32.59-.38.86h2.61Z" class="cls-1"></path>
  <path d="m37.44,17.41h2.57c.7,0,1.33.03,1.73.16.82.27,1.15.93,1.15,1.57,0,.36-.09.58-.12.65-.3.69-.94.82-1.3.9.41.07.94.15,1.31.58.24.26.37.63.37,1.02,0,.53-.27,1.27-1.1,1.64-.5.22-1.04.25-1.8.25h-2.81v-6.77h0Zm1.58,1.27v1.41h1.25c.38,0,.99-.03.99-.73,0-.65-.56-.68-.88-.68h-1.37Zm0,2.64v1.64h1.16c.56,0,1.28-.03,1.28-.8,0-.82-.66-.83-1-.83h-1.44Z" class="cls-1"></path>
  <path d="m44.51,17.41h2.58c.7,0,1.33.03,1.73.16.82.27,1.15.93,1.15,1.57,0,.36-.09.58-.12.65-.3.69-.94.82-1.3.9.41.07.94.15,1.31.58.24.26.37.63.37,1.02,0,.53-.27,1.27-1.1,1.64-.5.22-1.04.25-1.8.25h-2.81v-6.77h0Zm1.58,1.27v1.41h1.25c.38,0,.99-.03.99-.73,0-.65-.56-.68-.88-.68h-1.37Zm0,2.64v1.64h1.16c.56,0,1.28-.03,1.28-.8,0-.82-.66-.83-1-.83h-1.44Z" class="cls-1"></path>
  <path d="m50.19,17.41h1.91l1.43,2.32c.08-.19.1-.23.27-.51l1.14-1.81h1.9l-2.52,3.57v3.2h-1.64v-3.16l-2.5-3.62Z" class="cls-1"></path>
</svg>