<svg viewBox="0 0 372.1 539.99" xmlns="http://www.w3.org/2000/svg" id="Layer_1">
  <defs>
    <style>
      .cls-1 {
        fill: #3a3a1f;
      }
    </style>
  </defs>
  <path d="m372.1,18.4v400.2c-.3.9-.6,1.7-.8,2.5-2.3,7.7-7.1,12.9-15,14.7-2.6.6-5.4.6-8,.6H22.9c-1.3,0-2.5,0-3.8-.1-4.6-.3-8.5-2-12-5-3.9-3.4-5.6-8-7-12.8-.1-133.3-.1-266.7-.1-400.1.2-.7.4-1.3.6-2C2.2,9.6,6.2,4.7,12.6,1.8c1.7-.8,3.5-1.2,5.3-1.8,112.1,0,224.2,0,336.3,0,.8.3,1.6.6,2.5.8,6.6,1.9,11.2,6.1,13.8,12.4.7,1.7,1.1,3.5,1.6,5.2h0Zm-123.5,115c.3.1,1.1.5,1.8,1,4,2.6,8.2,5,11.8,8,8.1,6.8,11,17.7,7.6,26.6-3.8,9.9-12.8,16-23.7,16-5.8,0-11.1-1.7-16.5-3.8-5.3-2-10.6-4.2-16.1-5.1-6.1-1.1-9.9,2.8-10,9.1v1.6c0,7.9,0,15.9-.1,23.8,0,.8-.8,2.3-1.3,2.3-6.6.1-13.1.1-20,.1v-3.4c0-8.6.1-17.1-.2-25.7-.1-5.1-3.6-8-8.7-7.9-1.1,0-2.2.1-3.2.2-8.9,1.1-17.7,2.1-26.6,3.2-4.2.5-7.5,4.2-7.5,8.2s3.3,7.8,7.6,8.1c1.9.2,3.9-.1,5.9-.3,5.1-.6,10.1-1.2,15.5-1.9v26.8c0,5.5,3.2,9,8.8,9.1,12.7.1,25.4.1,38.1,0,5.8-.1,8.9-3.5,8.9-9.3v-22.4c0-.7.1-1.3.1-1.5,5.7,1.6,11.1,3.6,16.7,4.7,18.2,3.6,37.1-5,45.9-20.4,9.6-16.9,5.4-38.1-10.3-50.9-1.6-1.3-1.7-2.3-1.3-4.2,1-5.4,2.4-11.1,2-16.5-1.5-18.4-11.5-31.2-28.3-38.7-1.6-.7-2.6-1.6-3.1-3.3-9.9-30.6-44.8-42.3-71-30.7-11.8,5.2-20.6,14-28.1,24.3-10.7,14.7-18.3,31.1-23.9,48.2-7.3,22.3-13.7,45-20.5,67.5-.9,3.1-1.8,6.3-2.8,9.9-3.5-3.4-6.7-6.4-9.8-9.4-5.9-5.7-11.8-11.4-17.8-17-3.8-3.6-9-3.3-12.5.5-3,3.2-2.9,8.3.6,11.6,12.6,12.2,25.3,24.4,38.1,36.5,5.4,5.1,12.7,3,15.1-4,.3-.9.5-1.9.8-2.9,4.3-16.5,8.3-33,12.9-49.4,6.3-22.2,13.7-44,24.2-64.7,5.6-11,11.9-21.5,21.2-29.7,11.4-10,24.5-11.9,38.3-6.1,12.8,5.4,19.5,15.5,20.4,29.4.1,2,.9,2.3,2.6,2.5,17.7,1.9,30.2,19.1,25.4,35.9-1.4,4.8-4.5,9.1-7,14.1h0Zm-128,146.6h8.1c4.9.1,8.2,2.4,9.8,7.1.1.3.2.9.5.9,1.2.4,2.5.9,3.7.8.6,0,1.5-1.4,1.5-2.1,0-6.3-.2-12.6-.4-18.9,0-1.7-1-2.3-2.6-2.5-3.1-.2-3.6,2.1-3.9,4.2-.5,3.2-2.4,4.5-5.2,4.8-3.4.3-6.8.4-10.2.4-.5,0-1.5-1-1.5-1.6-.1-5.4,0-10.8,0-16.2,0-1.9,1-2.7,2.9-2.7,2.7.1,5.4.2,8.1-.2,8.1-1.2,14.6,1.7,20.5,6.8,1.1.9,2.3,1.8,3.6,2.2.9.3,2.4-.1,3.2-.7.4-.3.2-1.9-.1-2.7-.9-2.3-2-4.4-3-6.6q-1.7-4-6.2-4c-14.6,0-29.2.1-43.8.1-2.5,0-5.1-.2-7.6,0-.9.1-2.2,1.4-2.2,2.2s1.2,2,2.1,2.4c1.1.4,2.5.2,3.7.2,4.8.2,5.3.7,5.3,5.4,0,10.8.2,21.6,0,32.4-.1,7.3,1.8,7.7-7.7,8-1.8,0-3.6.3-3.5,2.7.1,2.4,1.9,2.2,3.5,2.2h24.3c2.5,0,5.1.1,7.6-.1.8-.1,2.1-1.3,2.1-1.9-.1-.9-.9-2-1.8-2.5-.7-.5-1.9-.3-2.9-.3-2-.1-4-.1-5.9-.5-.8-.2-2-1.3-2-2-.1-5.5,0-11.1,0-17.3h0Zm75.2-31.9c-7.2.4-14.3.9-20.9,4.1-8.4,4.1-9.3,12.2-1.8,17.7,3.8,2.8,8.3,4.7,12.4,7,5.4,3.1,11.2,5.9,16.2,9.6,6.1,4.4,3.1,10.8-2.7,12.4-3.3.9-6.9,1.2-10.4,1.1-7.6-.3-13.2-3.9-16.1-11.1-1-2.6-2.7-2.5-4.7-2-2.3.6-2.1,2.4-1.8,4.1.6,2.8,1.4,5.6,2,8.4.5,2.5,2,3.8,4.4,4,8,.6,15.9,1.4,23.9,1.5,5.4.1,10.7-1.4,15.5-4.2,9.2-5.5,9.9-14.2,1.4-20.6-3.6-2.8-7.7-4.9-11.8-7.1-5.2-2.8-10.5-5.1-15.7-7.8-2.1-1.1-3.9-2.7-3.6-5.5.4-2.8,2.5-4.3,4.9-4.8,3.4-.7,6.9-1.1,10.4-1,5.2.2,8.8,3.1,10.2,8.2.7,2.5,2,2.5,4,2.2,2.2-.3,3.2-1.5,2.9-3.7-.2-2.1-.5-4.3-.6-6.5-.2-2.3-1.4-3.7-3.6-4-4.7-.7-9.6-1.3-14.5-2h0Zm90.2,51.3c-2.1-3.6-2.7-3.8-6.3-2.5-9.8,3.4-19.6,4.4-29.1-.7-8.7-4.6-12.2-12.5-11.9-22,.3-8.5,4.6-14.4,12.3-17.8,5.7-2.5,11.8-3.2,18-2.5,4.8.6,8.7,2.5,9.8,7.8.3,1.5.8,2.5,2.6,2.2,1.7-.3,3.2-.7,3.1-2.9v-6.5c0-4.1-.6-5-4.8-5.2-6.5-.4-13.1-.7-19.7-.4-6.9.3-13.5,2.1-19.6,5.5-8.7,4.7-15,11.4-15.6,21.8-.6,11,5,18.8,14.2,24,10.6,6,22.2,6.1,33.9,4.1,4.7-.9,9.1-2.3,13.1-4.9h0Zm-11-247.4c0-6.9-5.4-12.4-12.3-12.4s-12.4,5.5-12.4,12.4,5.4,12.2,12.2,12.3c6.9.1,12.4-5.4,12.5-12.3h0ZM105.9,408.1c.4,0,1.2,0,2-.2,1.1-.3,2.3-.6,3.3-1.2,2.6-1.5,3.8-3.8,3.6-6.8-.2-2.9-2-4.6-4.5-5.5s-5.2-1.5-7.8-2.3c-2-.7-2.4-2.3-1.1-3.5,2.1-1.9,7.1-1,7.9,1.6s2.5,1.6,3.8,1.2c.4-.1.7-2,.5-2.9-1.2-3.7-4.2-4.9-7.8-5.2-3.6-.3-6.9.5-8.9,3.9-1.7,3-.7,6.7,2.4,8.4,1.6.8,3.4,1.2,5.1,1.8,1.4.5,3,.8,4.3,1.4,1.8.9,1.9,2.7.4,3.9-2.3,1.9-8.7,1.2-9.2-2.3-.4-2.4-2.2-2-3.4-1.5-.6.3-1,2-.8,3,1,4.1,4.6,6.2,10.2,6.2h0Zm138.1-13.4c2.4-3.5,2.2-6.8-.2-9.1-2.6-2.5-7.4-2.6-10.2-.3-2.7,2.2-3,5.4-.7,9.4-3.3,4.4-3.3,8.5.1,11.5,3.1,2.8,8.6,2.6,11.6-.3,3-3,2.8-7.2-.6-11.2h0Zm-53.7-3.5c.1-.3.2-.5.1-.6,0-.3-.1-.5-.2-.8-1.3-3.5-3.8-5.7-7.5-6.2-4.4-.7-8.2.5-11,4.2-3.5,4.7-2.9,13.3,1.2,17.6,2.6,2.7,7.9,3.6,11.9,2,3.6-1.4,5.4-4.2,6-7.9-2.4-1.2-4.1-1.7-5.4,1.5-1.6,4-7.4,4.1-9.8.6-2-3-2-8.6,0-11.6,2.2-3.1,7.8-3.3,9.4,0,1.7,3,3.3,2,5.3,1.2h0Zm-51.4-.2c-.6-1.3-1-2.7-1.8-3.8-4.5-6.1-15.1-4.8-18.2,2.4-2.1,4.8-1.8,9.7,1.1,14.2,2.6,4,6.6,4.7,11,4.1,3.9-.6,6.4-3,7.7-6.7.5-1.3.3-2.1-1.1-2.4-.9-.2-1.7-.4-2.7-.6-.3.8-.6,1.5-.9,2.1-.9,2.4-2.8,3.5-5.2,3.5s-4.4-1-5.4-3.3c-1.5-3.4-1.5-6.9.3-10.2,2-3.6,7.9-4.1,9.7-.5,1.4,3.1,3,2.3,5.5,1.2h0Zm131.8-42.8l-.6.7c.4,1.1.6,2.4,1.3,3.2,2.6,3,6.2,2.6,9.5,1.9,3-.6,5-2.7,5.2-5.8.3-5.9.2-11.9.3-17.8,0-1.8-1.5-2.3-2.2-1.6-1.6,1.4-2.6.4-3.9-.1-1-.3-2.1-.5-3.2-.4-3.5.3-5.8,2.2-6.9,5.5-1.4,4.2-.5,9.1,2.5,11.5,2.8,2.2,5.9,2.5,9.1.7.3-.1.6-.2,1-.3.2,2.4,0,4.5-2.4,5.3s-4.7.9-6.5-1.6c-.7-.6-2.1-.8-3.2-1.2h0Zm-167.2-7h-.6c-1-3.4-2.1-6.7-2.9-10.1-.6-2.3-1.8-2.9-4.1-2,.1.7.2,1.4.4,2.1,1.5,4.6,3,9.2,4.4,13.9.4,1.3.9,2.2,2.6,2.2s2-1,2.4-2.3c.9-3.2,1.8-6.5,2.7-9.7,1.5,3.4,2.3,6.8,3.4,10.1.3.8,1.4,1.9,2.1,1.8.9,0,2.1-.9,2.4-1.7,1.1-2.7,2-5.6,2.9-8.4.8-2.6,1.7-5.2,2.5-7.8-2.4-.9-3.5-.2-4.1,1.9-.9,3.4-2.1,6.7-3.2,10-1.5-3.4-2.3-6.7-3.2-10-.3-1.2-.6-2.4-2.3-2.4s-2.1,1-2.5,2.2c-.9,3.4-1.9,6.8-2.9,10.2h0Zm19.1-12c1.7,5.3,3.3,10.4,4.9,15.6.4,1.3.7,2.5,2.6,2.5s2.1-1.2,2.5-2.5c.9-3.3,1.8-6.5,2.7-9.8,1.4,3.4,2.2,6.8,3.3,10.1.3.9,1.3,1.8,2.2,2.1,1.5.5,2.1-.7,2.6-2,1.5-4.7,3.1-9.4,4.7-14.1.2-.6.2-1.3.3-1.9-2.4-.9-3.3,0-3.9,2-.9,3.3-2.1,6.6-3.1,9.9-1.4-3.3-2.3-6.5-3.2-9.8-.4-1.4-.6-2.5-2.5-2.5-2,0-2.1,1.3-2.5,2.6-1,3.5-2,6.9-3.1,11-1.2-4.1-2.4-7.6-3.2-11.1-.6-2.5-1.8-3-4.3-2.1h0Zm45.6,11.9h-.6c-.9-3.3-1.8-6.6-2.7-9.9-.4-1.3-.6-2.6-2.5-2.5-1.9,0-2.1,1.3-2.4,2.6-.9,3.3-1.9,6.7-2.8,10-1.5-3.4-2.6-6.6-3.4-10-.6-2.4-1.8-3.1-4.1-2.1.1.7.1,1.3.3,1.9,1.5,4.6,3,9.2,4.4,13.9.4,1.4.8,2.4,2.7,2.4,1.8,0,2-1.2,2.3-2.4.9-3.3,1.9-6.6,2.8-9.9,1.3,3.1,2.1,6.2,2.9,9.2.4,1.4.3,3.1,2.6,3.1s2.3-1.7,2.7-3.1c1.2-3.6,2.4-7.2,3.6-10.8.5-1.4.8-2.9,1.3-4.3-2.4-1-3.4-.2-4,1.9-.9,3.3-2,6.6-3.1,10h0Zm103.7,51c.3-1,.5-1.8.8-2.5.8-1.7,3.1-2.5,4.8-1.6,1.8,1,2.5,2.7,1.2,4.3-1.7,2.3-4,4.1-5.8,6.2-1.9,2.1-3.7,4.3-5.2,6.7-.9,1.5-.3,2.7,1.9,2.6,4-.1,7.9-.1,11.9,0,1.7,0,2.4-.5,2.4-2.3s-.9-2.1-2.4-2.1c-2.3.1-4.6,0-6.9,0-.1-.2-.2-.5-.2-.7.9-.8,1.9-1.5,2.7-2.4,1.9-2,4-3.9,5.6-6.2,1.8-2.6,1.2-6.1-.8-8.3-2.2-2.3-6.6-3-9.8-1.5-2.9,1.4-4.2,3.6-3.9,7.2,1.2.3,2.4.4,3.7.6h0Zm27.7,5.9v-11.9c0-.8-.6-2.1-.9-2.1-1-.1-2.4.1-3.1.8-1,.8-1.6,2.1-2.4,3.2-2.3,3.2-4.7,6.4-6.8,9.7-.7,1.1-.7,2.7-.5,4.1,0,.3,1.8.6,2.9.6,2.1.1,4.2,0,5.7,0,1.9,1.8-1.1,5.2,2.9,5.4,4.4.1,1.2-3.8,2.9-5.2.6-.1,1.4-.2,2.2-.4v-3.7c-1.1-.2-1.9-.3-2.9-.5h0Zm-206.8-10.1c-.3-1.9,1.2-4.1-1.9-4.2-4.3-.1-8.6-.1-13,.1-.6,0-1.8,1.2-1.8,1.9-.1,6.7,0,13.3-.1,20,0,1.7.7,2.1,2.3,2.1,1.5,0,2.4-.4,2.3-2.1-.1-2,.1-4,0-5.9-.1-1.6.5-2.3,2.2-2.2,2.2.1,4.3,0,6.5,0,1.6,0,2-.7,2-2.1s-.4-2.2-2-2.1c-2,.1-4-.1-5.9,0-2.2.2-2.8-.7-2.7-2.8,0-2,.6-2.7,2.6-2.6,3,.1,6.1-.1,9.5-.1h0Zm145-50c0,6,3.2,9.6,8.8,9.7s9-3.6,9.1-9.7c.1-5.8-3.4-9.5-8.9-9.6-5.6,0-8.9,3.6-9,9.6Zm21.2,50.4c-.7,1.1-1.1,1.7-1.4,2.4-1.7,4.7-3.5,9.4-5.1,14.1-.4,1.1-.8,2.8,1.5,3,1.8.1,2.9-.3,3-2.4.1-1.7.4-3.5,1.1-5,1.9-4,4.2-7.9,6.2-11.9.6-1.1.8-2.5.8-3.7,0-.3-1.8-.7-2.8-.8-3.7-.1-7.4,0-11.1,0-1.5,0-2,.6-2.1,2.1,0,1.5.4,2.4,2.1,2.3,2.5-.1,5-.1,7.8-.1h0Zm-49.8-55.1c-1.4-1.5-2.3-3.4-3.7-3.8-2.2-.7-4.8-.8-7.1-.6-2.6.3-4.3,2.4-4.3,4.8-.1,2.7,1.5,4.1,3.9,4.9,2.1.7,4.2,1.1,6.2,1.9.6.2,1.3,1.1,1.3,1.7s-.6,1.5-1.2,1.9c-1.9,1.4-5.6.7-6.7-1.4-1.1-2.1-2.4-1.6-3.9-.9,1,5.1,6.3,7.4,11.8,5.1,2.4-1,3.9-2.7,3.8-5.3,0-2.7-1.8-4-4.1-4.7-2-.6-4-1.1-5.9-1.8-.7-.2-1.3-1-1.6-1.6-.1-.3.4-1.1.8-1.5,1.4-1.1,5-.9,5.9.6,1,1.9,2.2,1.8,4.8.7h0Zm18.7,7.6c-1.9-.7-3-.6-4,1.4-.6,1.1-2.6,2.2-3.8,2.2-1.4-.1-3.7-1.3-4-2.4-.6-2.6-.4-5.4,0-8.1.1-.9,1.8-2,3-2.4,2.1-.7,3.7.2,5,2.1.4.7,1.9.6,2.9.9,0-.9.4-2.1,0-2.5-1.3-1.3-2.7-2.7-4.4-3.3-3.7-1.2-7.5.2-9.4,2.9-2.1,3-2.3,9.2-.2,12.4,1.9,2.9,5.6,4.3,9.3,3.4,3.3-.9,5.2-3.1,5.6-6.6h0Zm-8.5,50.8v13.6c0,1.6.1,2.7,2.3,2.7s2.2-1.3,2.2-2.8v-22.1c-1.8.9-3,1.4-4,2.1-1.4,1-2.4,2.5-3.9,3.3-2.4,1.3-2.3,3-1.6,5.3,1.6-.7,3.1-1.3,5-2.1h0Zm-23.8,2c1.7-.6,3.3-1.2,5.2-2v13.8c0,1.7.6,2.4,2.4,2.4s2.1-.9,2-2.4c-.1-3.4,0-6.8,0-10.3v-12.3c-1.8,1-2.9,1.5-3.9,2.2-1.3,1-2.3,2.4-3.6,3.1-2.4,1.3-2.8,2.8-2.1,5.5h0Zm-7.2-61.7c.2.1.5.3.7.4,1-.8,2-1.5,3-2.2-1.1-.7-2.1-1.3-3.4-2.1-.2-2.5,0-2.8,2.8-3.3.7-.1,1.3-.9,1.7-1.5.1-.2-.4-1.2-.8-1.4-3.3-1.5-7,.7-7.4,4.3-.1.8-.1,1.6-.1,1.8-1.1.9-1.9,1.4-2.5,2.1-.1.2.3,1.3.5,1.3,3,.2,2,2.4,2.1,4,.1,3.1,0,6.1,0,9.2,0,1.4-.1,2.8,2,2.7,2.1-.1,1.6-1.6,1.6-2.8-.2-4.1-.2-8.3-.2-12.5h0Zm-45.7,58.4c0,3.4,2.9,6.1,6.2,6.1,3.5,0,6.4-2.9,6.3-6.4-.1-3.4-2.8-6.1-6.2-6.1s-6.3,2.9-6.3,6.4Zm116.3-61.9c0,6.1-.1,11.4.1,16.7,0,.7,1,1.8,1.7,2,1.7.4,1.8-.9,1.8-2.2,0-2.6-.1-5.2,0-7.8.2-4,.9-4.6,4.9-5,.6-.1,1.4-1,1.6-1.6.1-.4-.7-1.6-1-1.6-1.8,0-3.7.3-6.1.5-.4-.1-1.4-.5-3-1h0Zm-82,19.1c.4,0,.8.1,1.2.1.5-.8,1.3-1.4,1.6-2.3.3-1.2-.1-2.1-1.6-2-1.2,0-2.5,0-2.3,1.7.1.9.7,1.7,1.1,2.5h0Zm56.8-4.5h-1.2c-.4.8-1.1,1.5-1.3,2.4-.3,1.4.4,1.9,1.8,1.9s2.4-.4,2.1-1.9c-.2-.9-.9-1.6-1.4-2.4h0Z" class="cls-1"></path>
  <path d="m319.7,536.7c4.4.1,5.8-1.7,4.5-5.2-1.7-4.6-3.5-9.2-5.4-14.3-.8,1.4-1.1,2.2-1.5,3-4.3,0-5,.6-5,5v8c-3.2.9-3.5.7-3.5-2v-14.3h8.5c.4,0,.7.2,1,.2,2.8-.1,4.7,1.1,5.7,3.7.8,2.2,1.6,4.4,3,6.7,1.1-2.8,2.3-5.6,3.2-8.5.7-2.2,1.9-2.8,4.3-2-.4,1.2-.8,2.4-1.2,3.5-1.8,4.8-3.5,9.6-5.4,14.4-.7,1.6-1.6,3.3-2.9,4.4-.9.8-2.7.8-4,.5-.6-.1-.8-1.8-1.3-3.1h0Z" class="cls-1"></path>
  <path d="m169.1,498.1c-3.4.6-3.5.6-3.5-2.5v-14.5c4,2,8.2-2,11.9,1.4.3.3,1.3-.1,1.9-.4,5-2.7,8.8-.6,9,5,.1,2.8-.1,5.6.1,8.4.1,2.4-.7,3.4-3.6,2.6v-7.5c0-1.1,0-2.2-.1-3.2-.1-1.6-.3-3.1-2.5-3.1-2,.1-3.3,1.1-3.4,3.1-.1,3,0,5.9-.2,8.9,0,.7-.7,1.8-1.4,2-1.2.4-2.2,0-2.2-1.7.1-3,.1-5.9,0-8.9,0-1.5,0-3.2-2.2-3.4-2.2-.2-3.5,1-3.7,3.1-.2,3-.1,6.1-.2,9.2.2.4.1.9.1,1.5Z" class="cls-1"></path>
  <path d="m86.8,517c2.9-.2,5.6-.6,8.2-.5,4.7.2,7.8,6,6.3,11.4-1.4,5-4.5,6.7-11.1,5.6v3.7c0,3-.1,3.1-3.4,2.5v-22.7h0Zm3.2,8.8c0,.4,0,1.2.2,2,.5,1.8,1.6,3.4,3.5,3,1.3-.2,2.6-1.5,3.6-2.6.5-.6.5-1.7.5-2.6.2-3.8-1.3-6.3-3.9-6.3-2.3.1-3.9,2.4-3.9,6.5h0Z" class="cls-1"></path>
  <path d="m167.8,510.6h3.2c.1,2.2.2,4.2.3,6.5.9-.2,1.6-.5,2.2-.6,1.1-.1,2.4-.2,3.5,0,4.3,1,6.5,6.4,5,11.8-1.2,4.3-5,6.3-9.4,5.2-1.5-.4-3.1-.1-4.9-.1l.1-22.8h0Zm3.2,14.6c0,3.5,1.5,5.7,3.9,5.8,2.3.1,3.8-1.9,4-5.2v-1.3c-.2-3.2-1.6-5-3.8-5s-3.7,1.8-4,4.9c-.1.3-.1.7-.1.8h0Z" class="cls-1"></path>
  <path d="m192.7,486.5c.1-2.3,1.2-4,3.3-4.5,2-.5,4.2-.8,6.3-.6,3,.2,4.3,1.6,4.5,4.7.2,2.1.1,4.1.1,6.2.1,2,.3,3.9.4,6-.1,0-.4.3-.6.2-2.9-1.1-5.7-.1-8.6.3-3.3.5-5.8-1.6-6.1-4.4-.3-2.7,1.4-4.9,4.7-5.7,1.7-.4,3.4-.5,5.1-.9.5-.1,1.3-.6,1.4-1,.1-.6-.2-1.5-.7-1.9-1.3-1.3-5-1-5.8.6-1.1,2.2-2.3,1.7-4,1h0Zm10.6,4.1c-2.1.4-4,.5-5.7,1.1-.7.2-1.6,1.4-1.5,2.1s1.1,1.6,1.9,1.8c2.7.9,4.9-1.1,5.3-5h0Z" class="cls-1"></path>
  <path d="m277.7,528.2c.1,4-4.4,6.5-8.8,5.8-4.6-.7-7.3-5.1-6.5-10.5.7-4.9,4.2-7.6,9.1-7,4.3.5,6.9,4.3,6.2,9.8h-11.4c-.1,2.5,1,3.9,2.8,4.5,1.9.6,3.7.2,4.7-1.7,1.1-1.9,2.5-1.3,3.9-.9h0Zm-3.4-5.3c-.5-2.5-1.9-3.5-4-3.4-2.1,0-3.3,1-3.6,3.4h7.6Z" class="cls-1"></path>
  <path d="m132.4,498.1c-2.9.9-3.8,0-3.6-2.5s0-5,0-7.6c0-1.9-.3-3.7-2.8-3.7s-3.8,1.2-3.9,3.6c-.1,2.7-.1,5.4-.1,8.1,0,1.4,0,2.5-1.9,2.5s-1.7-1.2-1.7-2.4v-18.4c0-1.3,0-2.5,1.9-2.5,1.8,0,1.7,1.2,1.7,2.4v4.4c1.2-.3,2.1-.5,3-.7,4.2-.9,7.2,1.3,7.4,5.6.1,3.7,0,7.4,0,11.2h0Z" class="cls-1"></path>
  <path d="m209,526.4h-11.6c.2,2.4,1.1,3.8,3,4.4,1.9.6,3.6.2,4.6-1.7s2.4-1.3,3.9-.9c-.6,4.2-4.1,6.5-8.8,5.8-4.6-.7-7.1-4.8-6.4-10.5.6-4.9,4.2-7.7,9.1-7,4.4.6,6.9,4.3,6.2,9.9h0Zm-11.2-3.4h7.6c-.4-2.5-1.9-3.4-3.9-3.4-2.1-.1-3.5.9-3.7,3.4Z" class="cls-1"></path>
  <path d="m65.7,526.3h-11.5c-.1,2.4.9,3.8,2.7,4.5,1.9.7,3.7.3,4.7-1.5,1.1-2,2.5-1.4,4.1-1-.9,4.4-4.5,6.6-9.2,5.7-4.5-.9-6.9-5-6.1-10.7.7-4.6,4.3-7.4,9.1-6.8,4.2.6,6.7,4.2,6.2,9.8h0Zm-11.4-3.4h7.8c-.4-2.6-1.9-3.4-4-3.4-2.1.1-3.4,1.1-3.8,3.4h0Z" class="cls-1"></path>
  <path d="m151.7,491h-11.4c-.3,2.4.7,3.8,2.6,4.4,1.7.6,3.6.5,4.5-1.2,1.1-1.9,2.4-1.8,4.1-1.2-.2,3.8-3.2,6-7.8,5.8-4.9-.2-7.8-3.9-7.4-9.6.3-5,3.7-8.4,8.3-8.1,4.7.3,7.5,3.9,7.1,9.9h0Zm-11.5-3.3h7.6c0-2.5-1.5-3.3-3.4-3.5-2.2-.1-3.7.9-4.2,3.5Z" class="cls-1"></path>
  <path d="m237.6,498.2c-2.7.7-4.5.4-5.6-2.1-.7-1.5-1.7-2.8-2.7-4-.3-.5-.9-.7-1.4-1.1-.4.6-.9,1.1-1,1.7-.2,1-.2,2-.1,3,.2,2.5-.8,3.3-3.5,2.4v-20.3c0-1.1-.2-2.4,1.6-2.5,2,0,1.8,1.3,1.8,2.6v9c3.6-1.9,5.1-6.8,10.2-5-1.1,1.1-2.2,2.2-3.3,3.3-3.4,3.3-3.2,2.4-.6,6.3,1.5,2.1,3,4.3,4.6,6.7h0Z" class="cls-1"></path>
  <path d="m240.1,516.4c4.9,0,8,3.6,7.9,9s-3.4,8.8-8.2,8.7c-4.9,0-7.8-3.5-7.8-9,.1-5.6,3-8.7,8.1-8.7h0Zm-4.5,8c0,4.2,1.4,6.5,3.9,6.4,1.4-.1,3.2-1,3.9-2.1,1.4-2.4,1.6-5.4-.3-7.6-.9-1-3-1.3-4.5-1.3-.8,0-1.8,1.1-2.3,2-.5,1-.6,2.2-.7,2.6h0Z" class="cls-1"></path>
  <path d="m154.4,522.2c-1.1-.5-2.2-1.2-3.3-1.5-1.4-.4-3-.7-4.5-.9-.4,0-1.1.8-1.1,1.3,0,.4.6,1.1,1.1,1.3,1.6.6,3.3,1,4.9,1.5,2.4.8,4.3,2,4.1,4.9-.1,2.5-2,4.5-4.8,5.1-4.2.9-9.6-1-9.1-5.6,1.4-.4,2.7-1.1,3.7,1,.4.8,1.9,1.7,2.8,1.6,1.2-.1,2.4-1,3.6-1.6-.9-.8-1.7-1.7-2.7-2.3-1.3-.7-2.7-.9-4.1-1.4-1.9-.7-3.2-2.1-3.2-4.2,0-2.3,1.3-3.7,3.3-4.5,4.5-1.9,9,.1,9.3,5.3h0Z" class="cls-1"></path>
  <path d="m280.8,528.3c2-.6,3.2-.7,4.2,1.2.5.9,2.4,1.4,3.7,1.4.9,0,1.7-1.2,2.6-1.8-.7-.6-1.4-1.5-2.2-1.9-1.8-.8-3.8-1.1-5.5-2-2.4-1.2-3-4.1-1.5-6.2,2-2.8,4.9-2.8,7.8-2.3,2.5.4,4.2,1.8,4.6,4.8-1.4.5-2.5,1.1-3.9-.6-.7-.9-2.7-.9-4.1-1.1-.5,0-1.3.8-1.4,1.3,0,.4.7,1.2,1.2,1.4,1.8.7,3.6,1.1,5.4,1.7,2,.6,3.6,2,3.3,4-.2,1.7-1.2,3.6-2.5,4.7-2.5,2-5.6,1.7-8.4.4-2.2-1.1-3-2.8-3.3-5h0Z" class="cls-1"></path>
  <path d="m81.5,522.2c-1.1-.6-2.1-1.3-3.3-1.7-1.3-.5-2.7-.8-4-.9-.5,0-1.3.8-1.4,1.3-.1.4.6,1.3,1.2,1.5,1.8.7,3.6,1.1,5.4,1.7,1.8.6,3.2,1.6,3.4,3.7.2,2.2-.6,3.9-2.4,5.1-3.8,2.6-11.8,1.1-11.5-4.6,1.5-.5,2.6-1.2,3.9,1,.6,1,2.7,1.4,4.1,1.5.7.1,1.5-1.2,2.2-1.8-.7-.6-1.2-1.4-2-1.7-1.7-.7-3.7-1-5.3-1.8-3.5-1.7-3.5-6-.2-8,4.2-2.8,9.9-.6,9.9,4.7h0Z" class="cls-1"></path>
  <path d="m104.3,525c.1-5.5,3.2-8.7,8.2-8.6,4.8.1,7.8,3.5,7.8,8.8-.1,5.6-3.2,9-8.2,8.9-5-.1-7.9-3.6-7.8-9.1h0Zm3.1-.1c.2.1.3.2.5.3,0,.5.1,1.1.1,1.6.3,2.6,1.9,4.2,4.1,4.2,2.5,0,3.9-1.5,4.2-3.8.2-1.7.2-3.5-.2-5-.7-2.6-4.1-3.8-6.1-2-1.2,1.2-1.7,3.1-2.6,4.7h0Z" class="cls-1"></path>
  <path d="m265,490.2c-.1,5.5-3.2,8.6-8.2,8.5-4.9-.1-7.8-3.5-7.7-9.1.1-5.3,3.4-8.8,8.3-8.6,4.8.2,7.7,3.7,7.6,9.2h0Zm-3.6,0c0-1,0-1.6-.1-2.1-.4-2.3-1.6-3.8-4.1-3.9-2.3-.1-4,1.3-4.3,3.9-.2,1.6-.4,3.5.3,4.7.7,1.3,2.4,2.4,3.8,2.8,1.8.5,3.2-.9,3.8-2.7.4-1,.5-2.1.6-2.7h0Z" class="cls-1"></path>
  <path d="m137.9,533.5h-3.6c0-3.1.1-6.1,0-9.2-.1-2.1.4-4.6-2.9-4.8-2.6-.1-3.9,1.6-3.9,5v8.5c-3.2,1-3.5.8-3.5-2.1,0-4.1.1-8.3,0-12.4,0-1.9,1-2,2.4-1.9,1.2.1,2.5.2,3.7-.1,4.6-1.1,7.9,1.2,7.9,6-.1,3.7-.1,7.3-.1,11h0Z" class="cls-1"></path>
  <path d="m104,498.1c0-5.5-.1-11,.1-16.3.1-2.6-.9-3.4-3.2-3.1-.9.1-1.9.2-2.7-.1-.6-.2-1.4-1-1.3-1.5.1-.7.8-1.7,1.3-1.8,5.2-.1,10.4-.1,15.7,0,.5,0,1.2,1.1,1.2,1.8,0,.5-.8,1-1.3,1.5-.1.1-.3,0-.5,0-3.6.2-5.4,2.2-5.4,5.8v11.1c-.1,3.2-.2,3.3-3.9,2.6h0Z" class="cls-1"></path>
  <path d="m277.1,475.5c-.1,1-.3,1.7-.4,2.7-.8,0-1.5-.1-2.1.1-.6.3-1.4.9-1.5,1.5-.1.5.7,1.1,1.2,1.6.5.6,1.1,1,1.7,1.6-.6.5-1.3.9-1.8,1.5s-1.2,1.5-1.2,2.2c-.1,3.2,0,6.5-.1,9.7,0,.7-.9,1.8-1.6,2-1.6.5-1.9-.7-1.9-2,0-3.2.1-6.5,0-9.7,0-.8-1-1.5-1.5-2.3-.4-.5-.9-1.1-.9-1.7,0-.4.6-.9,1-1.3.5-.6,1.3-1.1,1.4-1.8.7-4.3,2.9-5.6,7.7-4.1h0Z" class="cls-1"></path>
  <path d="m227.5,516.5c1.9.1,3.5.3,2.5,2.9-2.7-.2-3,1.5-2.9,3.7.1,3.4,0,6.8,0,10.1-3.4.7-3.6.6-3.6-2.4v-8.4c0-1.3.5-2.9-1.7-3,.1-.9-.1-1.9.2-2.8.3-.8,1.4-1.5,1.5-2.3.7-3.3,2.3-4.7,5.7-4.2.7.1,1.4,1,2,1.5-.7.6-1.2,1.7-2,1.8-1.7.3-2.2,1.1-1.7,3.1Z" class="cls-1"></path>
  <path d="m302.9,510.9v5.4c1.5.5,3.5.5,2.3,3-2.1,0-2.6,1.3-2.4,3.3.2,1.7,0,3.4,0,5.1,0,1.4-.1,2.6,1.9,2.9.6.1,1,1.6,1.5,2.5-4.8,1.6-6.9.2-7-4.3v-6.2c0-1.3.5-2.8-1.4-3.3-.2-.1-.4-.6-.5-.9-.1-.3-.1-1,.1-1,2.5-.9,1.1-3.8,2.6-5,.7-.5,1.6-.9,2.9-1.5h0Z" class="cls-1"></path>
  <path d="m186.4,510.7h3.2v22.8h-3.2v-22.8h0Z" class="cls-1"></path>
  <path d="m260.1,520.2c-4.2-.3-4.9.4-5,4.6-.1,2.8,0,5.5,0,8.7-1.2,0-2.2.1-3.6.2,0-5.4,0-10.6.1-15.8,0-.4.9-1.1,1.4-1.2,1.7-.2,3.5-.2,5.2-.2,2.6,0,3.1.8,1.9,3.7Z" class="cls-1"></path>
  <path d="m211.7,481.7h9.7c-.6,1.5-.9,2.4-1.3,3.3-4-.4-4.9.4-5,4.3-.1,2.1-.1,4.3,0,6.5.2,2.6-1,3.1-3.4,2.4v-16.5h0Z" class="cls-1"></path>
  <path d="m39.4,525.1c0-2.2-.1-4.3.1-6.5.1-.7.9-1.8,1.5-1.9,1.6-.3,3.3-.5,4.9-.2,1,.2,2.6,1,2.7,1.7.2,1.5-.8,2.3-2.6,2-2-.4-2.7,1.1-2.8,2.8-.2,2.9-.2,5.7-.3,8.6,0,1.3-.3,2.5-1.9,2.1-.7-.2-1.5-1.3-1.5-2.1-.3-2.2-.1-4.4-.1-6.5h0Z" class="cls-1"></path>
  <path d="m163,533.5h-3.6v-8.2c0-2.3-.1-4.7.1-7,.1-.6.9-1.5,1.5-1.6s1.9.7,1.9,1.1c.1,5.2.1,10.4.1,15.7h0Z" class="cls-1"></path>
  <path d="m163.3,512.8c-.7.5-1.4,1.5-2.1,1.4-.7-.1-1.6-1.1-1.7-1.8-.1-.5.9-1.6,1.5-1.7.7-.1,1.5.7,2.2,1,.1.4.1.7.1,1.1h0Z" class="cls-1"></path>
  <path d="m268.9,57.8c-1-1.5-2-2.9-3-4.5.3-.4.8-.7.9-1.1.4-1.6,1.2-3.3.8-4.7-.3-1-2.2-2-3.5-2.3-1.9-.4-3.9-.1-6.2-.1,3.2-3,8.1-2.6,11.3.6,3.1,3.5,3.1,8.7-.3,12.1h0Z" class="cls-1"></path>
  <path d="m256.7,45.7v11.9c-3.6-2.3-3.8-7.9,0-11.9Z" class="cls-1"></path>
  <path d="m261.4,53.8c1.6,2,3.3,4,5,6-2.5,1.4-5.1,1.1-7.6,0,.6-1,1.4-1.7,1.6-2.6.3-1,.1-2.1.1-3.1.3,0,.6-.2.9-.3h0Z" class="cls-1"></path>
  <path d="m242.2,400.5c0,2.1-1.7,3.8-3.8,3.7-2-.1-3.5-1.7-3.6-3.7,0-2,1.5-3.6,3.5-3.6,2.3-.1,3.9,1.5,3.9,3.6h0Z" class="cls-1"></path>
  <path d="m241.7,391c-1.1.6-2.2,1.9-3.2,1.8-.9-.1-2.3-1.4-2.5-2.4-.4-1.6.9-2.8,2.6-2.6,1.1.2,2.1,1.2,3.2,1.9-.1.4-.1.8-.1,1.3h0Z" class="cls-1"></path>
  <path d="m283.9,337.8c-1.2,2.1-1.8,4.2-3.2,5.5-1.7,1.7-4.5,1.1-6-.6-2-2.2-2.1-7.3-.2-9.6,1.5-1.8,4.3-2.6,6-1,1.4,1.4,2.2,3.6,3.4,5.7h0Z" class="cls-1"></path>
  <path d="m295.1,391.6v6.5h-4.3c1.4-2.1,2.6-4,4.3-6.5Z" class="cls-1"></path>
  <path d="m252.7,338.4c-1.1,1.8-1.8,4.1-3.3,5.4-2.5,2.2-6.6.5-7.5-2.8-.4-1.6-.5-3.4-.2-5,.4-3,2.6-4.8,5.3-4.6,2.7.1,4.7,2.2,5,5.1.1.5,0,1.1,0,1.6.2,0,.4.2.7.3h0Z" class="cls-1"></path>
  <path d="m152.2,392.9c-2.4-1.9,1.7-7.7-5.1-5.9.4-.4.7-.8,1.1-1.2,1.3.6,2.9.9,3.9,1.8,1.5,1.3,1.3,3.1.1,5.3h0Z" class="cls-1"></path>
</svg>