<svg xml:space="preserve" style="enable-background:new 0 0 40 40;" viewBox="0 0 40 40" y="0px" x="0px" xmlns:xlink="http://www.w3.org/1999/xlink" xmlns="http://www.w3.org/2000/svg" id="Layer_1" version="1.1">
<style type="text/css">
	.st0{clip-path:url(#SVGID_00000118368042688686404570000009267452692205898127_);}
	.st1{fill:#3A3A1F;}
</style>
<g>
	<defs>
		<rect height="40" width="40" id="SVGID_1_"></rect>
	</defs>
	<clipPath id="SVGID_00000062898446906369010630000002982195948034299550_">
		<use style="overflow:visible;" xlink:href="#SVGID_1_"></use>
	</clipPath>
	<g style="clip-path:url(#SVGID_00000062898446906369010630000002982195948034299550_);">
		<g>
			<path d="M29.1,2.1c-1-0.5-1.9-0.1-2.4,0.8c-0.4,0.9-0.2,1.7,0.7,2.1c0.9,0.4,1.9,0.1,2.4-0.8
				C30.3,3.4,30,2.6,29.1,2.1L29.1,2.1z M29.2,4c-0.4,0.8-1.1,1.1-1.5,0.9C27.2,4.7,27,4,27.4,3.1c0.4-0.8,0.9-1.2,1.5-0.8
				C29.5,2.6,29.6,3.3,29.2,4L29.2,4z" class="st1"></path>
			<path d="M39.6,18.5l-2.8,0.2l-0.1,0.6h-0.1c0-0.9-0.1-1.7-0.1-1.7h0.2l0.2,0.5l2.8-0.2l-0.1-0.7l-0.7-0.2v-0.2
				l0.9-0.1c0.1,1,0.2,1.9,0.2,2.9L39,19.7l0-0.2l0.7-0.3L39.6,18.5L39.6,18.5z" class="st1"></path>
			<path d="M36.4,16.1l0.7,0.1l0.1,0.2l-0.8,0.2l0-0.1c-0.2-0.3-0.3-0.6-0.4-0.9c-0.3-1,0.2-1.7,1.2-2
				c1-0.3,1.9,0.2,2.2,1.3c0.1,0.4,0.1,0.7,0.1,1.1l-0.8,0.2l-0.1-0.2l0.6-0.4c0-0.1,0-0.2,0-0.3c-0.3-0.9-1-1.3-1.8-1
				s-1.2,0.8-1,1.6C36.3,15.9,36.3,16,36.4,16.1L36.4,16.1L36.4,16.1z" class="st1"></path>
			<path d="M38,11.1l-0.1-0.3L34.4,11l-0.3-0.3l-0.1,0.1c0,0,0.3,0.5,0.6,1l0.1-0.1l0-0.4l1-0.1l0.5,0.9l-0.7,0.7
				l-0.3-0.3L35,12.7c0,0,0.3,0.6,0.5,1.3l0.1-0.1v-0.4L38,11.1L38,11.1z M35.9,11.2l1.2-0.1L36.3,12L35.9,11.2L35.9,11.2z" class="st1"></path>
			<path d="M36.1,8.1L35.2,7l-0.1,0.1l0.1,0.4L33,9.1l-0.4-0.2L32.6,9c0,0,0.5,0.6,0.9,1.1l0.1-0.1l-0.1-0.4L34.3,9
				l0.2,0.3c0.5,0.6,1.1,0.8,1.6,0.4c0.1-0.1,0.2-0.2,0.3-0.3c0.1-0.1,0.1-0.3,0.1-0.4C36.5,8.7,36.4,8.5,36.1,8.1L36.1,8.1z
				 M36,8.7C36,8.8,36,8.9,35.9,9c-0.1,0.1-0.1,0.2-0.2,0.2c-0.1,0.1-0.2,0.1-0.3,0.1s-0.2,0-0.3,0c-0.2,0-0.3-0.1-0.4-0.3l-0.1-0.1
				L35.7,8l0.2,0.2C36,8.3,36,8.4,36,8.4S36.1,8.6,36,8.7L36,8.7z" class="st1"></path>
			<path d="M31.5,6.6l2.3-1l0.8,0.8l-0.1,0.1L34,6.2l-1.9,1.9l0.2,0.4l-0.1,0.1c-0.5-0.5-1-1-1-1l0.1-0.1l0.4,0.1
				l1.5-1.6l-2.5,1.1l-0.1-0.1l0.8-2.7L30,6.2l0.2,0.4l-0.1,0.1l-1-0.7l0.1-0.1l0.4,0.1L31.4,4l-0.2-0.4l0.1-0.1l0.9,0.6L31.5,6.6
				L31.5,6.6z" class="st1"></path>
			<path d="M25.2,3.9l0.4-0.6l0.2,0.1l-0.2,0.8h-0.1c-0.4,0-0.7,0-1-0.1c-1-0.3-1.4-1-1.2-2c0.2-1,1-1.5,2.2-1.2
				c0.3,0.1,0.7,0.2,1,0.4l-0.2,0.8l-0.2,0L26,1.2c-0.1,0-0.2-0.1-0.3-0.1c-1.1-0.3-1.6,0.2-1.8,1c-0.2,0.8,0.1,1.5,0.9,1.7
				C25,3.8,25.1,3.8,25.2,3.9" class="st1"></path>
			<path d="M19.5,3l0-2.7l-0.4-0.2V0c0.8,0,1.5,0,1.5,0v0.1l-0.4,0.2l0,2.8l0.8,0l0.3-0.6h0.2l-0.1,0.9c0,0-1.3,0-2.3,0
				V3.2L19.5,3L19.5,3z" class="st1"></path>
			<path d="M18.7,3.2l-0.4-0.1l-1.7-2.8l-0.2,0l-0.8,3.3l-0.3,0.2l0,0.1l1.1-0.3l0-0.1l-0.4-0.1l0.2-1l1-0.2l0.5,0.9
				l-0.4,0.2l0,0.1l1.4-0.2L18.7,3.2L18.7,3.2z M16.2,2.2L16.4,1L17,2.1L16.2,2.2z" class="st1"></path>
			<path d="M14.8,3.2c-0.2-0.5-0.6-0.6-1.3-0.4c0.5-0.3,0.8-0.7,0.6-1.1c0-0.1-0.1-0.2-0.2-0.3
				c-0.1-0.1-0.2-0.1-0.3-0.2c-0.2-0.1-0.5-0.1-0.8,0.1L11.3,2l0.1,0.1h0.5l1.1,2.5l-0.3,0.3L12.6,5l1.3-0.6
				c0.4-0.2,0.6-0.3,0.8-0.5c0.1-0.1,0.1-0.2,0.1-0.4S14.8,3.3,14.8,3.2L14.8,3.2z M12.4,1.8l0.3-0.1c0.4-0.2,0.7,0,0.8,0.4
				c0,0.1,0.1,0.2,0.1,0.3c0,0.1,0,0.2-0.1,0.3s-0.1,0.2-0.2,0.2s-0.1,0.1-0.2,0.1l-0.2,0.1L12.4,1.8L12.4,1.8z M14.2,4
				c-0.1,0.2-0.2,0.2-0.5,0.3l-0.2,0.1L13,3.1L13.2,3c0.5-0.2,0.8,0,1,0.4c0,0.1,0.1,0.2,0.1,0.3S14.2,3.9,14.2,4z" class="st1"></path>
			<path d="M11.3,3.7C10.8,2.9,10,2.6,9.1,3.2C8.2,3.8,8,4.7,8.6,5.6c0.6,0.8,1.4,1,2.2,0.5C11.7,5.6,11.9,4.6,11.3,3.7
				L11.3,3.7z M10.8,5.8c-0.5,0.3-1.1,0-1.7-0.7c-0.5-0.7-0.6-1.4,0-1.7c0.6-0.3,1.2,0,1.6,0.7C11.2,4.9,11.2,5.6,10.8,5.8L10.8,5.8
				L10.8,5.8z" class="st1"></path>
			<path d="M7.7,8.3L5.8,6.3L5.3,6.5L5.2,6.4l1.1-1l0.1,0.1L6.2,5.9l2,2l0.6-0.6L8.6,6.6l0.1-0.1l0.6,0.7
				c0,0-0.8,0.8-1.7,1.6L7.5,8.7L7.7,8.3L7.7,8.3z" class="st1"></path>
			<path d="M6.3,8.6l0.8,0.6c-0.1,0.4-0.3,0.7-0.5,1c-0.6,0.9-1.5,1-2.4,0.4C3.3,10,3,9.1,3.8,8.1
				C4,7.8,4.2,7.6,4.5,7.3l0.1-0.1l0.7,0.5L5.1,8L4.4,7.8C4.4,7.9,4.3,7.9,4.2,8c-0.7,0.8-0.5,1.5,0.3,2.1c0.7,0.5,1.4,0.4,1.9-0.3
				c0.1-0.1,0.1-0.1,0.1-0.2L5.9,9.1L5.5,9.4L5.4,9.3l0.9-1.2l0.1,0.1L6.3,8.6L6.3,8.6z" class="st1"></path>
			<path d="M1.5,14.5l2.2,0.7L4,14.9l0.1,0C4,15.3,3.9,15.6,3.8,16l-0.1,0c0-0.1,0-0.3,0-0.4L1,14.7
				c-0.1,0.1-0.2,0.2-0.3,0.4l-0.1,0c0.1-0.3,0.2-0.6,0.3-1c0.9-0.3,1.8-0.6,2.7-0.9l-1.8-0.6l-0.3,0.3l-0.1-0.1
				c0.1-0.4,0.3-0.8,0.4-1.1l0.1,0.1c0,0.2,0,0.3,0,0.5l2.9,1l-0.1,0.2C3.6,13.7,2.6,14.1,1.5,14.5L1.5,14.5z" class="st1"></path>
			<path d="M0.4,18.4l2,0.2c0.5,0,0.8-0.2,0.9-0.7c0-0.2,0-0.4-0.1-0.6c-0.1-0.2-0.3-0.3-0.7-0.3l-2-0.2l-0.2,0.4H0.2
				c0.1-0.4,0.1-0.9,0.2-1.3l0.2,0c0,0.2,0.1,0.3,0.1,0.5l1.9,0.2c0.5,0,0.8,0.2,0.9,0.5c0.2,0.3,0.2,0.6,0.2,0.9
				c-0.1,0.8-0.5,1.2-1.2,1.2l-2-0.2c-0.1,0.1-0.2,0.3-0.2,0.4H0c0-0.5,0.1-1,0.1-1.5h0.2L0.4,18.4" class="st1"></path>
			<path d="M36.8,29.4c2.3-1.9,1.3-5.8,1.3-5.8c-0.3,1.2-1.6,3.5-2,4.2c-0.4,0.9-0.6,1.9-0.7,2.3s-0.2,0.8-0.2,0.8
				C35.4,30.6,36.3,29.8,36.8,29.4" class="st1"></path>
			<path d="M28,37c-2.2-0.9-4.6-2-7.3-1.5c-0.3,0.1-0.5,0.1-0.8,0.1c-0.3,0-0.5,0-0.8-0.1c-2.7-0.5-5,0.6-7.3,1.5
				c-1.7,0.6-3.9,0.5-5.3-0.4c0.7,0.8,1.7,1.4,2.7,1.7c1.9,0.7,4.1,0.2,5.6-0.8c1.3-0.7,2.5-2,4.2-1.5c-1.8,0.8-3.4,1.9-4.9,3.2
				l0.9,0.7c1.3-1.6,2.9-2.8,4.8-3.7c1.9,0.8,3.5,2.1,4.8,3.7l0.9-0.7c-1.4-1.3-3.1-2.4-4.9-3.2c1.7-0.5,2.9,0.8,4.2,1.5
				c1.5,1,3.8,1.5,5.6,0.8c1-0.3,2-0.9,2.7-1.7C31.8,37.5,29.6,37.6,28,37" class="st1"></path>
			<path d="M31.5,34.2c1.4-0.6,3.1-0.4,4.4-1.4c1.4-1.1,2.7-2.7,2.9-4.6c-1,2.5-3.4,2.8-5,4.3c-0.3,0.3-0.6,0.5-0.9,0.8
				l0,0c0.4-0.4,0.8-0.8,1.1-1.4c1-1.5,0.6-3.7,1.3-5.4c-0.7,0.9-1.2,1.8-1.6,2.9C33.1,31.1,32.9,33,31.5,34.2" class="st1"></path>
			<path d="M3.2,29.4c0.4,0.4,1.4,1.2,1.5,1.4c0,0-0.1-0.3-0.2-0.8c-0.1-0.4-0.2-1.4-0.7-2.3c-0.3-0.7-1.7-2.9-2-4.2
				C1.8,23.6,0.9,27.5,3.2,29.4" class="st1"></path>
			<path d="M31.1,36.5c1.8,0,4.5-0.9,5.9-3.3c0,0-1.2,1.7-5.7,1.7c-1.1,0-3.2,0.4-3.2,0.4c-0.1,0-0.2,0-0.3,0
				c0.2-0.1,0.5-0.2,0.8-0.2c0.7-0.2,1.6-0.6,2.1-1.4c0.8-1.1,1.6-2.9,1.8-3c-1.6,1-2.7,2.1-4.1,3.3c-1.1,0.9-2.1,1.1-3.4,1.4
				c0.1,0,0.2,0.1,0.4,0.1C26.6,35.5,28.5,36.5,31.1,36.5" class="st1"></path>
			<path d="M14.6,35.5c0.1,0,0.2,0,0.4-0.1c-1.3-0.3-2.3-0.5-3.4-1.4c-1.4-1.2-2.5-2.4-4.1-3.3c0.2,0.1,1.1,1.9,1.8,3
				c0.5,0.8,1.4,1.2,2.1,1.4c0.3,0,0.5,0.1,0.8,0.2c-0.1,0-0.2,0-0.3,0c0,0-2.1-0.4-3.2-0.4c-4.5,0-5.7-1.7-5.7-1.7
				c1.3,2.4,4.1,3.3,5.9,3.3C11.4,36.5,13.4,35.5,14.6,35.5" class="st1"></path>
			<path d="M1.1,28.2c1,2.5,3.4,2.8,5,4.3c0.3,0.3,0.6,0.5,0.9,0.8l0,0c-0.4-0.4-0.8-0.8-1.1-1.4
				c-0.9-1.5-0.6-3.7-1.3-5.4c0.6,0.9,1.2,1.8,1.6,2.9c0.6,1.7,0.8,3.6,2.1,4.8C7,33.7,5.3,33.8,4,32.8C2.6,31.7,1.3,30.1,1.1,28.2
				L1.1,28.2z" class="st1"></path>
			<path d="M20.5,23.8c0.9,0,3.2-0.2,5.5-1.1c0.3-0.1,0.4-0.3,0.4-0.5c0-0.1,0-0.1,0-0.2c-0.2-1.8-0.6-3.5-1.2-5.2
				c-0.1-0.2-0.1-0.3-0.2-0.3s-0.1,0-0.2,0c-1.3,0.4-2.7,0.7-4.1,0.7c0,0-0.1,0-0.1,0c0,0-0.1,0-0.1,0.1c0,0-0.1,0.1-0.1,0.1
				s0,0.1,0,0.1c0,0.9,0,2.3,0,4.2v1.6c0,0.1,0,0.1,0.1,0.2c0,0,0.1,0,0.1,0C20.4,23.8,20.5,23.8,20.5,23.8" class="st1"></path>
			<path d="M15.1,15.7c-0.1,0.2,0,0.2,0,0.2c0,0,0,0,0.1,0.1c1.3,0.4,2.7,0.6,4.1,0.6c0.1,0,0.2,0,0.3-0.1
				c0.1-0.1,0.1-0.2,0.1-0.3c0-1.8,0.1-3.6,0.2-5.4c-0.6,0-1.1-0.1-1.7-0.2C16.8,12.2,15.8,13.9,15.1,15.7L15.1,15.7z" class="st1"></path>
			<path d="M19.5,17.7c0,0,0-0.1,0-0.1s0-0.1-0.1-0.1c0,0-0.1-0.1-0.1-0.1c0,0-0.1,0-0.1,0c-1.4-0.1-2.8-0.3-4.2-0.8
				c0,0-0.1,0-0.1,0c0,0-0.1,0-0.1,0.1c-1.2,2.9-1.4,6-1.4,6c0,0.1,0,0.2,0.1,0.2c1.8,0.6,3.8,0.9,5.7,0.9c0,0,0.2,0,0.3-0.1
				c0.1-0.1,0.1-0.1,0.1-0.4C19.5,21.8,19.5,17.7,19.5,17.7L19.5,17.7z" class="st1"></path>
			<path d="M26.2,29.7c-0.2,0.5-0.5,0.9-0.8,1.3c1.5-0.7,3.2-2.2,4.4-3.7c-1,0.7-2,1.4-3.1,1.8
				C26.5,29.2,26.3,29.4,26.2,29.7" class="st1"></path>
			<path d="M31.7,21.8c0,0.8-0.1,1.7-0.2,2.5c0.8-1.5,1.3-3.2,1.3-5c0-0.6,0-1.2-0.2-1.8c-0.1,0.6-0.3,1.2-0.7,1.8
				c-0.2,0.4-0.3,0.6-0.3,0.9C31.7,21.1,31.7,21.8,31.7,21.8" class="st1"></path>
			<path d="M28.6,12.6c0.2-0.6,0.3-1.3,0-1.9c-0.2-0.5-0.9-1.1-0.9-1.1c-0.9-0.6-1.9-1.2-2.9-1.6
				C24.9,8.2,25,8.4,25,8.6c0,0.3-0.1,0.6-0.4,1c1.4,0.8,2.6,1.8,3.7,3c0,0,0.2,0.2,0.3,0.2C28.5,12.8,28.6,12.6,28.6,12.6
				L28.6,12.6z" class="st1"></path>
			<path d="M12.9,22.4c0.1-2,0.7-4,1.4-6c0,0,0-0.1,0-0.1c0-0.1,0-0.1-0.1-0.1c-1.2-0.5-2.2-1.3-2.8-2.1c0,0,0,0,0,0
				s0,0,0,0c0,0,0.1,0,0.1,0c0.7,0.7,1.7,1.2,2.9,1.7c0,0,0.1,0,0.1,0c0.1,0,0.1,0,0.2-0.2c0.8-1.8,1.8-3.5,3.1-5
				c-1-0.2-2-0.8-2.3-1.4c0,0,0-0.1,0-0.1c0.1,0,0.1,0,0.1,0c1.1,1.2,4.4,1.1,4.4,1.1c1.4,0,4.2-0.5,4.2-1.6c0-1-1.5-1.6-4.2-1.6
				c-8.2,0-12.6,7-12.6,12.6c0,6.7,5.8,12.6,12.4,12.6c0-0.1-0.1-1.6-0.1-1.6c0-0.2,0-0.2-0.2-0.2c0,0-2.9-0.2-3.9-0.7
				c0,0,0-0.1,0,0c1.3,0.2,2.5,0.3,3.8,0.3c0,0,0.1,0,0.1,0s0,0,0.1,0c0,0,0,0,0-0.1c0,0,0-0.1,0-0.1c0-0.2-0.1-4.8-0.1-4.8
				c0-0.3-0.1-0.4-0.4-0.4c-2-0.1-3.9-0.5-5.7-1.2c-0.1,0-0.1,0-0.1,0s0,0.1,0,0.1c-0.1,1.4-0.1,2.8,0.1,4.2c0,0,0,0,0,0
				s-0.1,0-0.1,0c-0.3-1.2-0.5-2.4-0.5-3.7c0-0.1,0-0.6,0-0.6c0-0.1,0-0.1-0.1-0.2c0,0-0.1-0.1-0.1-0.1c-0.8-0.4-1.5-0.9-2.2-1.4
				c0,0,0,0,0,0c0,0,0,0,0,0s0,0,0,0s0,0,0,0c0,0,0,0,0,0s0,0,0,0c0.7,0.4,1.4,0.8,2.2,1.1h0.1C12.8,22.6,12.8,22.5,12.9,22.4" class="st1"></path>
			<path d="M31.3,18.5c0.8-1.4,0.8-2.5,0.8-2.5c0-0.1,0-0.1,0-0.2c-0.4-1.6-1.2-3.1-2.5-4.4c0,0.1,0,0.3,0,0.4
				c0,0.5-0.1,1-0.3,1.5c-0.1,0.1-0.1,0.3-0.1,0.4c0,0.1,0,0.2,0.1,0.3C29.3,13.9,30.6,15.6,31.3,18.5" class="st1"></path>
			<path d="M30.7,21L30.7,21c-0.9,0.8-1.8,1.4-2.9,1.9c-0.4,0.2-0.4,0.3-0.4,0.7c0,1.9-0.2,3.4-0.6,4.7c0,0,0,0.1,0.1,0
				s1.9-0.9,3.1-2.1c0.4-0.4,0.7-1,0.8-1.6C31,22.4,30.7,21,30.7,21" class="st1"></path>
			<path d="M25.7,29.6L25.7,29.6c-0.1,0-0.2,0-0.3,0c-1.7,0.5-3.4,0.8-5.1,0.8c-0.2,0-0.2,0-0.2,0.2L20,32.2
				c1.7,0,3.3-0.3,4.8-1c0.4-0.5,0.6-1,0.9-1.5C25.7,29.7,25.7,29.6,25.7,29.6" class="st1"></path>
			<path d="M24.4,15.8c0.1,0,0.2-0.1,0.2-0.1c0-0.1,0-0.2,0-0.3c-0.7-1.7-1.6-3.3-2.6-4.8c-0.6,0.1-1.3,0.1-1.9,0.2
				c0.1,1.8,0.1,3.6,0.1,5.4c0,0.2,0,0.2,0.1,0.3c0.1,0,0.1,0.1,0.2,0C21.7,16.6,23.4,16.2,24.4,15.8" class="st1"></path>
			<path d="M25.8,15.3c0.7-0.4,1.4-0.8,1.9-1.3c0,0,0.1-0.1,0.1-0.1c0-0.1,0-0.1,0-0.1c0-0.1-0.1-0.2-0.1-0.4
				c-1-1.3-2.2-2.5-3.6-3.4c-0.5,0.3-1,0.5-1.6,0.6c1.1,1.4,2.1,2.9,2.9,4.5c0.1,0.2,0.1,0.3,0.2,0.3C25.6,15.4,25.7,15.3,25.8,15.3" class="st1"></path>
			<path d="M26.5,24c0,0,0-0.3-0.1-0.4c-0.1-0.1-0.3,0-0.3,0c-1.8,0.6-3.6,0.9-5.5,1c-0.4,0-0.4,0.1-0.4,0.4
				c0,1.7,0,3.3-0.1,4.7c0,0,0,0.1,0,0.2c0,0.1,0.2,0,0.2,0c1.9-0.1,3.7-0.5,5.5-1.2c0.2-0.1,0.3-0.2,0.4-0.5
				C26.6,26.4,26.5,23.9,26.5,24" class="st1"></path>
			<path d="M27.4,22c-0.1-0.1-0.1-0.4-0.1-0.4c-0.2-1.7-0.7-3.4-1.3-5.1c0-0.1,0-0.1-0.1-0.2c0-0.1,0-0.2,0.2-0.3
				c0.8-0.4,1.5-0.8,2.1-1.4c0.1-0.1,0.1-0.1,0.2-0.1c0,0,0.1,0,0.1,0.1c0.8,1.4,1.4,2.8,1.8,4.4c0,0.1,0.1,0.3,0.1,0.4
				c0,0.2-0.1,0.4-0.3,0.6c-0.7,0.7-1.5,1.3-2.4,1.9C27.7,21.9,27.4,22.1,27.4,22" class="st1"></path>
		</g>
	</g>
</g>
</svg>
