<svg xml:space="preserve" style="enable-background:new 0 0 40 34;" viewBox="0 0 40 34" y="0px" x="0px" xmlns:xlink="http://www.w3.org/1999/xlink" xmlns="http://www.w3.org/2000/svg" id="Layer_1" version="1.1">
<style type="text/css">
	.st0{clip-path:url(#SVGID_00000022519558231493206810000010477184423750160538_);}
	.st1{fill:#3A3A1F;}
</style>
<g>
	<defs>
		<rect height="34" width="40" id="SVGID_1_"></rect>
	</defs>
	<clipPath id="SVGID_00000178199744933668312010000002418213081615951748_">
		<use style="overflow:visible;" xlink:href="#SVGID_1_"></use>
	</clipPath>
	<g style="clip-path:url(#SVGID_00000178199744933668312010000002418213081615951748_);">
		<path d="M14,3.7h0.8c0.1,0,0.2,0,0.4,0c0.1,0,0.2,0.1,0.3,0.2c0.1,0.1,0.1,0.2,0.2,0.2c0,0.1,0.1,0.2,0.1,0.3
			c0,0.1,0,0.2-0.1,0.3s-0.1,0.2-0.2,0.3c-0.2,0.2-0.5,0.3-0.8,0.2h-0.5l1.4,1.8v0h0.6l-1.1-1.4c0.3,0,0.6-0.2,0.8-0.4
			s0.3-0.5,0.3-0.8c0-0.2,0-0.3-0.1-0.5c-0.1-0.2-0.2-0.3-0.3-0.4c-0.3-0.3-0.7-0.4-1.1-0.4h-1.3v4H14L14,3.7L14,3.7z" class="st1"></path>
		<path d="M11.7,7.2h0.5V3.7h0.9V3.3h-2.3v0.5h0.9L11.7,7.2L11.7,7.2z" class="st1"></path>
		<path d="M21.6,6.7c0-0.1-0.1-0.1-0.1-0.2c0-0.1,0-0.1,0-0.2v-3h-0.5v3c0,0.1,0,0.3,0.1,0.4c0,0.1,0.1,0.2,0.2,0.3
			c0.1,0.1,0.2,0.2,0.4,0.2c0.1,0,0.3,0.1,0.4,0.1h1.2V6.8H22C21.8,6.8,21.7,6.8,21.6,6.7L21.6,6.7L21.6,6.7z" class="st1"></path>
		<path d="M18,5.5l0.7-1.6l0.7,1.6H18L18,5.5z M17.8,5.9h1.8l0.6,1.3h0.6l-1.7-4v0h-0.5l-1.8,3.9l0,0.1h0.6L17.8,5.9
			L17.8,5.9z" class="st1"></path>
		<path d="M8.1,6L8.1,6c0,0.2,0,0.4,0.1,0.5C8.2,6.7,8.3,6.8,8.4,7C8.7,7.2,9,7.3,9.3,7.3S10,7.2,10.2,7
			c0.1-0.1,0.2-0.2,0.3-0.4c0.1-0.2,0.1-0.3,0.1-0.5c0-0.3-0.1-0.5-0.3-0.7C10.1,5.2,9.9,5,9.6,5L9.1,4.8C9,4.8,8.9,4.8,8.8,4.7
			C8.8,4.6,8.7,4.4,8.7,4.3c0-0.1,0-0.2,0-0.2c0-0.1,0.1-0.1,0.1-0.2C9,3.8,9,3.8,9.1,3.7c0.1,0,0.2,0,0.2,0s0.2,0,0.2,0.1
			c0.1,0,0.1,0.1,0.2,0.1C9.9,4,9.9,4,9.9,4.1c0,0.1,0,0.2,0,0.2v0.1h0.5V4.3c0-0.1,0-0.3-0.1-0.4c-0.1-0.1-0.1-0.2-0.2-0.4
			c-0.1-0.1-0.2-0.2-0.4-0.2C9.7,3.2,9.5,3.2,9.4,3.2h0c-0.3,0-0.6,0.1-0.8,0.3C8.4,3.6,8.4,3.7,8.3,3.9C8.2,4,8.2,4.1,8.2,4.3
			c0,0.2,0.1,0.4,0.2,0.6c0.1,0.2,0.3,0.3,0.6,0.4l0.4,0.1c0.5,0.1,0.7,0.4,0.7,0.7c0,0.1,0,0.2,0,0.3c0,0.1-0.1,0.2-0.1,0.2
			C9.8,6.7,9.7,6.7,9.6,6.8c-0.1,0-0.2,0.1-0.3,0.1c-0.1,0-0.2,0-0.3-0.1S8.9,6.7,8.9,6.6C8.8,6.5,8.7,6.5,8.7,6.4S8.6,6.2,8.6,6.1
			V6C8.6,6,8.1,6,8.1,6z" class="st1"></path>
		<path d="M23.7,7.2h0.5v-4h-0.5V7.2z" class="st1"></path>
		<path d="M2.2,5.5l0.7-1.6l0.7,1.6H2.2L2.2,5.5z M2,5.9h1.8l0.6,1.3h0.6l-1.7-4v0H2.6L0.8,7.2l0,0.1h0.6L2,5.9L2,5.9z" class="st1"></path>
		<path d="M27.4,5.5h-1.4l0.7-1.6L27.4,5.5L27.4,5.5z M27,3.2h-0.5l-1.8,3.9l0,0.1h0.6l0.6-1.3h1.8l0.6,1.3h0.6L27,3.2
			L27,3.2C27,3.2,27,3.2,27,3.2z" class="st1"></path>
		<path d="M31.6,3.2v3.1l-2.1-3.1h-0.6v4h0.5V4l2.2,3.2h0.5v-4C32.1,3.2,31.6,3.2,31.6,3.2z" class="st1"></path>
		<path d="M7.7,5.9V3.2H7.1v2.7c0,0.2-0.1,0.5-0.3,0.7C6.8,6.7,6.7,6.7,6.6,6.8S6.4,6.8,6.2,6.8c-0.1,0-0.2,0-0.3-0.1
			S5.7,6.6,5.6,6.5C5.4,6.3,5.3,6.1,5.4,5.8V3.3H4.8v2.7c0,0.2,0,0.4,0.1,0.5C5,6.6,5.1,6.8,5.2,6.9C5.4,7,5.5,7.2,5.7,7.2
			C5.9,7.3,6,7.3,6.2,7.3l0,0c0.2,0,0.4,0,0.5-0.1C6.9,7.2,7.1,7.1,7.2,7c0.1-0.1,0.2-0.3,0.3-0.5C7.6,6.3,7.6,6.1,7.7,5.9L7.7,5.9
			L7.7,5.9z" class="st1"></path>
		<path d="M21.6,30.8v-9.3H0L21.6,30.8z" class="st1"></path>
		<path d="M40,3.2L21.6,30.8v-9.3L40,3.2z" class="st1"></path>
		<path d="M13.8,17c0,0.2,0,0.4-0.1,0.6c-0.1,0.2-0.2,0.4-0.3,0.5c-0.1,0.1-0.3,0.3-0.5,0.4c-0.2,0.1-0.4,0.1-0.6,0.1
			h-0.9v-3h0.8c0.4,0,0.8,0.1,1.2,0.4c0.2,0.1,0.3,0.3,0.4,0.5S13.8,16.8,13.8,17L13.8,17z M12,15h-1.2v4h1.4c0.3,0,0.5,0,0.8-0.1
			s0.5-0.2,0.7-0.4c0.2-0.2,0.4-0.4,0.5-0.6s0.2-0.5,0.1-0.8c0-0.3-0.1-0.5-0.2-0.8c-0.1-0.2-0.3-0.5-0.5-0.6
			C13.2,15.2,12.6,15,12,15L12,15L12,15z" class="st1"></path>
		<path d="M5.9,17.2c0.2-0.2,0.3-0.6,0.3-0.9c0-0.3-0.2-0.6-0.4-0.9C5.5,15.1,5.1,15,4.7,15H3.4v4h0.5v-3.5h0.8
			c0.1,0,0.2,0,0.4,0.1c0.1,0,0.2,0.1,0.3,0.2c0.1,0.1,0.1,0.1,0.2,0.2c0,0.1,0.1,0.2,0.1,0.3c0,0.1,0,0.2-0.1,0.3s-0.1,0.2-0.2,0.3
			c-0.2,0.2-0.5,0.3-0.8,0.2H4.1L5.6,19v0h0.6l-1.1-1.5C5.4,17.5,5.7,17.4,5.9,17.2C5.9,17.2,5.9,17.2,5.9,17.2z" class="st1"></path>
		<path d="M0.8,15.5h0.9V19h0.5v-3.5h0.9V15H0.8V15.5z" class="st1"></path>
		<path d="M9.4,17.2H8l0.7-1.6L9.4,17.2L9.4,17.2z M8.9,15H8.4l-1.8,3.9l0,0.1h0.6l0.6-1.3h1.8l0.6,1.3h0.6L8.9,15
			L8.9,15L8.9,15z" class="st1"></path>
		<path d="M14.5,16v2c0,0.1,0,0.3,0.1,0.4c0.1,0.1,0.1,0.2,0.2,0.3c0.1,0.1,0.2,0.2,0.4,0.2c0.1,0,0.3,0.1,0.4,0h1.2
			v-0.5h-1.2c-0.1,0-0.3,0-0.4-0.1c-0.1-0.1-0.2-0.2-0.2-0.4v-0.9h1.3v-0.5H15V16c0-0.1,0.1-0.3,0.2-0.4c0.1-0.1,0.2-0.1,0.4-0.1
			h1.2V15h-1.2c-0.1,0-0.3,0-0.4,0.1c-0.1,0-0.3,0.1-0.4,0.2c-0.1,0.1-0.2,0.2-0.2,0.3C14.5,15.8,14.5,15.9,14.5,16L14.5,16L14.5,16
			z" class="st1"></path>
		<path d="M19.7,17.2c0.2-0.2,0.3-0.5,0.3-0.8c0-0.2,0-0.4-0.1-0.5c-0.1-0.2-0.2-0.3-0.3-0.4C19.4,15.1,19,15,18.6,15
			h-1.3v4h0.5v-3.5h0.8c0.1,0,0.2,0,0.4,0.1c0.1,0,0.2,0.1,0.3,0.2c0.1,0.1,0.1,0.1,0.2,0.2c0,0.1,0.1,0.2,0.1,0.3
			c0,0.1,0,0.2-0.1,0.3s-0.1,0.2-0.2,0.3c-0.2,0.2-0.5,0.3-0.8,0.2H18l1.4,1.8v0H20l-1.1-1.5C19.2,17.5,19.5,17.4,19.7,17.2
			C19.7,17.2,19.7,17.2,19.7,17.2z" class="st1"></path>
		<path d="M13.8,17c0,0.2,0,0.4-0.1,0.6s-0.2,0.4-0.4,0.5c-0.1,0.1-0.3,0.3-0.5,0.4c-0.2,0.1-0.4,0.1-0.6,0.1h-0.9v-3.1
			h0.8c0.4,0,0.9,0.1,1.2,0.4c0.2,0.1,0.3,0.3,0.4,0.5S13.8,16.8,13.8,17C13.8,17,13.8,17,13.8,17z M12.1,15.1h-1.2v4h1.4
			c0.5,0,1.1-0.2,1.4-0.6c0.4-0.4,0.6-0.9,0.6-1.4c0-0.3-0.1-0.5-0.2-0.8c-0.1-0.2-0.3-0.5-0.5-0.6C13.2,15.2,12.6,15,12.1,15.1
			L12.1,15.1L12.1,15.1z" class="st1"></path>
		<path d="M0.8,15.5h0.9v3.5h0.5v-3.6h0.9v-0.4H0.8C0.8,15.1,0.8,15.5,0.8,15.5z" class="st1"></path>
		<path d="M14.6,16.1v2c0,0.1,0,0.3,0.1,0.4c0.1,0.1,0.1,0.2,0.2,0.3c0.1,0.1,0.2,0.2,0.4,0.2c0.1,0,0.3,0.1,0.4,0h1.2
			v-0.5h-1.2c-0.1,0-0.3,0-0.4-0.1c-0.1-0.1-0.2-0.2-0.2-0.4v-0.9h1.3v-0.5h-1.3V16c0-0.1,0.1-0.3,0.2-0.4c0.1-0.1,0.3-0.1,0.4-0.1
			h1.2V15h-1.2c-0.1,0-0.3,0-0.4,0.1c-0.1,0.1-0.2,0.1-0.4,0.2c-0.1,0.1-0.2,0.2-0.2,0.4C14.6,15.8,14.6,15.9,14.6,16.1
			C14.6,16.1,14.6,16.1,14.6,16.1z" class="st1"></path>
		<path d="M19,17.6c0.3,0,0.6-0.2,0.8-0.4c0.2-0.2,0.3-0.5,0.3-0.8c0-0.2,0-0.4-0.1-0.5c-0.1-0.2-0.2-0.3-0.3-0.4
			c-0.3-0.3-0.7-0.4-1.1-0.4h-1.3v4h0.5v-3.6h0.9c0.3,0,0.5,0.1,0.7,0.2c0.1,0.1,0.1,0.2,0.2,0.3c0,0.1,0.1,0.2,0.1,0.3
			s0,0.2-0.1,0.3c0,0.1-0.1,0.2-0.2,0.3c-0.2,0.2-0.5,0.3-0.8,0.3h-0.5l1.4,1.8h0.6L19,17.6C19,17.6,19,17.6,19,17.6z" class="st1"></path>
		<path d="M5.9,17.2c0.2-0.2,0.3-0.5,0.3-0.8c0-0.2,0-0.4-0.1-0.5c-0.1-0.2-0.2-0.3-0.3-0.4c-0.3-0.2-0.7-0.4-1.1-0.4
			H3.4v4h0.5v-3.6h0.9c0.1,0,0.3,0,0.4,0.1c0.1,0,0.2,0.1,0.3,0.2c0.1,0.1,0.2,0.2,0.2,0.3c0.1,0.1,0.1,0.2,0.1,0.3s0,0.2-0.1,0.3
			c-0.1,0.1-0.1,0.2-0.2,0.3c-0.2,0.2-0.5,0.3-0.8,0.3H4.2l1.4,1.8h0.6l-1.1-1.5h0C5.4,17.6,5.7,17.4,5.9,17.2L5.9,17.2L5.9,17.2z" class="st1"></path>
		<path d="M9.4,17.3H8l0.7-1.6L9.4,17.3z M8.5,15l-1.8,4h0.6l0.6-1.3h1.8l0.6,1.3h0.5l-1.8-4H8.5L8.5,15z" class="st1"></path>
		<path d="M17.1,10.1v2c0,0.1,0,0.3,0.1,0.4c0.1,0.1,0.1,0.3,0.2,0.4c0.1,0.1,0.2,0.2,0.4,0.2c0.1,0.1,0.3,0.1,0.4,0.1
			h1.2v-0.6h-1.2c-0.1,0-0.3,0-0.4-0.1c-0.1-0.1-0.2-0.2-0.2-0.3v-0.8H19v-0.6h-1.3v-0.7c0-0.1,0.1-0.2,0.2-0.3
			c0.1-0.1,0.2-0.1,0.4-0.1h1.2V9.1h-1.2c-0.1,0-0.3,0-0.4,0.1c-0.1,0.1-0.3,0.1-0.4,0.2c-0.1,0.1-0.2,0.2-0.2,0.4
			C17.1,9.8,17.1,10,17.1,10.1C17.1,10.1,17.1,10.1,17.1,10.1z" class="st1"></path>
		<path d="M14.1,9.6H15v3.6h0.6V9.6h0.9V9.1h-2.4V9.6z" class="st1"></path>
		<path d="M0.8,9.6h0.9v3.6h0.6V9.6h0.9V9.1H0.8V9.6z" class="st1"></path>
		<path d="M9.6,11.8c0,0.1,0,0.2-0.1,0.3c0,0.1-0.1,0.2-0.2,0.3s-0.2,0.1-0.3,0.2c-0.1,0-0.2,0.1-0.3,0.1
			c-0.1,0-0.2,0-0.3-0.1s-0.2-0.1-0.3-0.2C8,12.2,7.9,12,7.9,11.7V9.1H7.3v2.8c0,0.2,0,0.4,0.1,0.6c0.1,0.2,0.2,0.3,0.3,0.5
			s0.3,0.2,0.5,0.3c0.2,0.1,0.4,0.1,0.6,0.1h0c0.2,0,0.4,0,0.6-0.1s0.3-0.2,0.5-0.3c0.1-0.1,0.2-0.3,0.3-0.5
			c0.1-0.2,0.1-0.4,0.1-0.6V9.1H9.6L9.6,11.8L9.6,11.8L9.6,11.8z" class="st1"></path>
		<path d="M22.9,11.1c0,0.2,0,0.4-0.1,0.6c-0.1,0.2-0.2,0.4-0.3,0.5c-0.1,0.1-0.3,0.3-0.5,0.4s-0.4,0.1-0.6,0.1h-0.9v-3
			h0.7c0.4,0,0.8,0.1,1.1,0.4c0.1,0.1,0.3,0.3,0.4,0.5C22.8,10.7,22.9,10.9,22.9,11.1L22.9,11.1L22.9,11.1z M21.2,9.1h-1.3v4.1h1.5
			c0.6,0,1.1-0.2,1.5-0.6c0.4-0.4,0.6-0.9,0.6-1.5c0-0.3,0-0.6-0.2-0.8c-0.1-0.2-0.3-0.5-0.5-0.7C22.4,9.3,21.8,9.1,21.2,9.1
			L21.2,9.1L21.2,9.1z" class="st1"></path>
		<path d="M12.5,10.8L12,10.7c-0.1,0-0.2-0.1-0.3-0.2c-0.1-0.1-0.1-0.2-0.1-0.3c0-0.1,0-0.1,0-0.2
			c0-0.1,0.1-0.1,0.1-0.2c0.1-0.1,0.1-0.1,0.2-0.1c0.1,0,0.1,0,0.2,0s0.1,0,0.2,0.1c0.1,0,0.1,0.1,0.2,0.1c0.1,0.1,0.1,0.1,0.1,0.2
			c0,0.1,0,0.1,0,0.2v0.1h0.6v-0.1c0-0.3-0.1-0.6-0.4-0.8C12.8,9.1,12.5,9,12.2,9c-0.3,0-0.6,0.1-0.9,0.3c-0.1,0.1-0.2,0.2-0.3,0.4
			S11,10,11,10.1c0,0.2,0.1,0.5,0.2,0.7s0.4,0.3,0.6,0.4l0.4,0.1c0.4,0.1,0.7,0.4,0.7,0.7c0,0.1,0,0.2-0.1,0.3
			c0,0.1-0.1,0.2-0.1,0.2c-0.1,0.1-0.1,0.1-0.2,0.1c-0.1,0-0.2,0.1-0.3,0.1c-0.2,0-0.4-0.1-0.5-0.2c-0.1-0.1-0.2-0.3-0.2-0.5v-0.1
			h-0.6V12c0,0.2,0.1,0.5,0.2,0.7s0.4,0.4,0.6,0.5c0.2,0.1,0.5,0.1,0.8,0.1s0.5-0.2,0.7-0.3c0.1-0.1,0.2-0.2,0.3-0.4
			c0.1-0.1,0.1-0.3,0.1-0.5c0-0.3-0.1-0.6-0.3-0.8C13,11,12.8,10.9,12.5,10.8L12.5,10.8L12.5,10.8z" class="st1"></path>
		<path d="M6.3,11.3c0.2-0.2,0.3-0.5,0.3-0.9c0-0.2,0-0.4-0.1-0.5S6.4,9.6,6.2,9.5C5.9,9.2,5.5,9.1,5.1,9.1H3.7v4.1h0.6
			V9.6h0.8c0.2,0,0.5,0.1,0.7,0.2C5.9,9.9,5.9,10,6,10.1S6,10.3,6,10.4c0,0.1,0,0.2-0.1,0.3c0,0.1-0.1,0.2-0.2,0.3
			c-0.2,0.2-0.5,0.2-0.8,0.2H4.4l1.5,2h0.8l-1.1-1.5C5.8,11.7,6.1,11.5,6.3,11.3L6.3,11.3L6.3,11.3z" class="st1"></path>
	</g>
</g>
</svg>
