<svg xml:space="preserve" style="enable-background:new 0 0 29.5 41.8;" viewBox="0 0 29.5 41.8" y="0px" x="0px" xmlns:xlink="http://www.w3.org/1999/xlink" xmlns="http://www.w3.org/2000/svg" id="Layer_1" version="1.1">
<style type="text/css">
	.st0{fill-rule:evenodd;clip-rule:evenodd;fill:#3A3A1F;}
	.st1{fill:#3A3A1F;}
</style>
<path d="M10.8,17.1c3.2,0,5.8-2.2,6.5-5.1v0h3.4c-0.7,4.8-4.9,8.4-9.9,8.4c-0.7,0-1.3-0.1-2-0.2v-3.4
	C9.4,17,10.1,17.2,10.8,17.1L10.8,17.1z M19.4,13.2h-0.2L19,13.7l0.2,0.1l-0.1,0.4l-1.2-0.9l0.1-0.4l1.5-0.1L19.4,13.2L19.4,13.2z
	 M18.3,13.2l0.5,0.4l0.1-0.4H18.3z M17.5,14.2l1.3,0.6l0.2-0.3l-1.3-0.6C17.7,13.8,17.5,14.2,17.5,14.2z M18.1,15.9l-1.2-0.8
	l0.2-0.3l0.9,0.6l0.3-0.5l0.3,0.2L18.1,15.9L18.1,15.9z M17.5,16.3l0.2,0.1l0.3-0.3l-1.4-0.5l-0.3,0.4l0.7,1.3l0.3-0.3l-0.1-0.2
	L17.5,16.3L17.5,16.3z M16.9,16.4L16.6,16l0.5,0.2L16.9,16.4L16.9,16.4z M16.4,17.6l-0.5-0.2l-0.1,0.1l0.3,0.4L15.8,18l-0.9-1.1
	l0.6-0.4c0.3-0.2,0.5-0.1,0.7,0.1c0.1,0.2,0.1,0.4,0,0.5l0.6,0.2L16.4,17.6L16.4,17.6z M15.9,16.8c-0.1-0.1-0.1-0.1-0.2,0L15.4,17
	l0.2,0.2l0.2-0.2C15.9,17,15.9,16.9,15.9,16.8L15.9,16.8z M14.3,17.6l0.5,1l0.3-0.2l-0.5-1l0.4-0.2L14.8,17l-1,0.5l0.1,0.3
	L14.3,17.6L14.3,17.6z M12.9,19.1l0.1-0.3c0.1,0.1,0.3,0.1,0.5,0c0.1,0,0.2-0.1,0.1-0.2c0-0.1-0.1-0.1-0.3,0h0
	c-0.2,0-0.6,0.1-0.7-0.2c-0.1-0.2,0-0.5,0.4-0.6c0.2-0.1,0.4-0.1,0.6,0L13.6,18c-0.1-0.1-0.3-0.1-0.4,0c-0.1,0-0.1,0.1-0.1,0.1
	c0,0,0.1,0,0.3,0c0.2,0,0.6-0.1,0.7,0.2c0.1,0.3,0,0.5-0.4,0.6C13.3,19.2,13.1,19.2,12.9,19.1L12.9,19.1z M11.1,18.1l0.1,0.8
	c0,0.4,0.3,0.6,0.8,0.5c0.4-0.1,0.6-0.3,0.6-0.7l-0.1-0.8L12.1,18l0.1,0.8c0,0.2-0.1,0.3-0.3,0.3c-0.2,0-0.3-0.1-0.3-0.2l-0.1-0.8
	L11.1,18.1L11.1,18.1z M10.7,19.3l0.1,0.2l0.4,0l-0.5-1.4l-0.5,0l-0.6,1.4l0.4,0l0.1-0.2C10.1,19.3,10.7,19.3,10.7,19.3z M10.2,19
	l0.2-0.5l0.2,0.5C10.6,19,10.2,19,10.2,19z" class="st0"></path>
<path d="M10.4,40.7c0-0.6,0.5-1.1,1.1-1.1c0.4,0,0.7,0.2,0.9,0.5l-0.3,0.2c-0.1-0.2-0.3-0.3-0.5-0.3
	c-0.4,0-0.8,0.3-0.8,0.8s0.3,0.8,0.8,0.8c0.2,0,0.4-0.1,0.5-0.3l0.3,0.2c-0.2,0.3-0.4,0.5-0.9,0.5C10.9,41.8,10.4,41.4,10.4,40.7z" class="st1"></path>
<path d="M12.9,41.8v-2.1h1.5V40h-1.1v0.5h1.1v0.3h-1.1v0.6h1.1v0.3L12.9,41.8C12.9,41.8,12.9,41.8,12.9,41.8z" class="st1"></path>
<path d="M16.2,41.8L15.7,41h-0.4v0.8H15v-2.1h0.9c0.4,0,0.7,0.3,0.7,0.7s-0.2,0.6-0.5,0.6l0.5,0.8L16.2,41.8L16.2,41.8z
	 M16.2,40.3c0-0.2-0.1-0.3-0.4-0.3h-0.5v0.7h0.5C16.1,40.7,16.2,40.5,16.2,40.3z" class="st1"></path>
<path d="M17.6,41.8V40h-0.6v-0.3h1.7V40H18v1.8H17.6L17.6,41.8z" class="st1"></path>
<path d="M19.2,41.8v-2.1h0.4v2.1H19.2z" class="st1"></path>
<path d="M20.2,41.8v-2.1h1.5V40h-1.1v0.5h1.1v0.3h-1.1v0.9L20.2,41.8C20.2,41.8,20.2,41.8,20.2,41.8z" class="st1"></path>
<path d="M22.3,41.8v-2.1h0.4v2.1H22.3z" class="st1"></path>
<path d="M23.4,41.8v-2.1h1.5V40h-1.1v0.5h1.1v0.3h-1.1v0.6h1.1v0.3L23.4,41.8C23.4,41.8,23.4,41.8,23.4,41.8z" class="st1"></path>
<path d="M25.5,41.8v-2.1h0.8c0.7,0,1.1,0.4,1.1,1.1s-0.5,1-1.1,1L25.5,41.8L25.5,41.8z M27.1,40.7
	c0-0.4-0.3-0.7-0.7-0.7h-0.4v1.5h0.4C26.8,41.5,27.1,41.1,27.1,40.7L27.1,40.7z" class="st1"></path>
<path d="M21.4,12h4.9c1.4,0,2.6,1.1,2.6,2.6v14.7c0,1.4-1.2,2.5-2.6,2.5H8.8v-9.8h0V21c0.6,0.1,1.3,0.2,2,0.2
	C16.2,21.2,20.7,17.2,21.4,12L21.4,12z M16.2,26.2c3.6-5.9,10.8-10.1,10.8-10.1s0.2,0.7-0.8,1.8c-0.2,0.2-0.4,0.4-0.7,0.7
	c-1.3,1.3-3.6,3.5-5.1,5.8c-0.6,1-1.1,1.8-1.5,2.4c-0.8,1.3-1.3,2.1-2.1,2.7c0,0-1.2,0.2-1.8-0.1c-0.4-1.2-1.3-2.2-1.9-2.9
	c0,0,0-0.1-0.1-0.1s-0.1,0-0.1-0.1c-0.1-0.1-0.1-0.2-0.2-0.2c-0.1-0.1-0.2-0.2-0.3-0.4c0-0.1,0-0.1,0,0c-0.2-0.8,1.5-1.8,2.1-1.7
	C15.3,24.2,15.9,25.4,16.2,26.2L16.2,26.2z" class="st0"></path>
<path d="M0.7,10.6c0-5.5,4.5-9.9,10.1-9.9s10,4.4,10,9.9c0,0.5,0,1-0.1,1.4h0.7c0.1-0.5,0.1-0.9,0.1-1.4
	C21.5,4.8,16.7,0,10.8,0S0,4.8,0,10.6c0,5.2,3.8,9.5,8.8,10.4v-0.7C4.2,19.4,0.7,15.4,0.7,10.6z" class="st1"></path>
<path d="M17.2,10.6c0-3.5-2.9-6.3-6.4-6.3s-6.4,2.8-6.4,6.3s2.9,6.3,6.4,6.3S17.2,14.1,17.2,10.6z M15.4,9.3
	c-1-0.6-2.2-0.8-3.4-0.6c0,0,0-0.1,0-0.1l0,0c0-0.1,0-0.2,0-0.3c0-1-0.3-1.9-0.8-2.8l-0.1-0.2l-0.2,0c-2.7,0.4-4.7,2.8-4.6,5.7
	c0,0.8,0.2,1.5,0.5,2.2l0,0c0.1,0.1,0.1,0.3,0.2,0.4c0.2,0.3,0.6,0.5,0.9,0.6c0.4,0.1,0.8,0.2,1.1,0.3c0.2,0,0.5,0.1,0.7,0.1
	c1.7,0,3.5-0.8,4.6-2.4c0.6-0.8,0.9-1.7,1.1-2.6l0-0.2L15.4,9.3L15.4,9.3z M10.9,6c0.4,0.7,0.6,1.5,0.6,2.3v0.5
	C10.2,9.1,9.1,9.9,8.2,11c-0.4,0.6-0.7,1.2-0.9,1.8c-0.2-0.6-0.3-1.2-0.4-1.8C6.8,8.5,8.5,6.4,10.9,6L10.9,6z M11.4,9.4
	c-0.3,2-1.8,3.5-3.7,4c0.2-0.7,0.5-1.4,0.9-2C9.4,10.4,10.4,9.7,11.4,9.4z M14,11.9c-1.4,1.9-3.7,2.6-5.8,1.9c2-0.6,3.5-2.4,3.8-4.5
	c1-0.2,2,0,2.9,0.5C14.8,10.5,14.5,11.3,14,11.9L14,11.9z" class="st0"></path>
<path d="M7.4,18c-0.3,0.5-0.9,0.6-1.2,0.3c-0.3-0.2-0.3-0.5-0.3-0.7l0.4,0c0,0.1,0,0.3,0.1,0.4c0.2,0.1,0.5,0.1,0.7-0.2
	c0.2-0.2,0.2-0.5,0-0.7c-0.1-0.1-0.2-0.1-0.3-0.1l-0.1,0.1l0.3,0.2l-0.2,0.4l-0.6-0.4l0.4-0.6c0.3-0.1,0.5-0.1,0.8,0.1
	C7.6,17.1,7.7,17.6,7.4,18L7.4,18z" class="st1"></path>
<path d="M6,17.2c-0.4,0.4-0.9,0.4-1.3,0.1c-0.3-0.3-0.3-0.8,0.1-1.2c0.4-0.4,0.9-0.5,1.3-0.1C6.4,16.3,6.4,16.8,6,17.2z
	 M5.1,16.4C4.9,16.6,4.8,16.9,5,17c0.2,0.2,0.5,0.1,0.7-0.1c0.2-0.2,0.3-0.5,0.1-0.7C5.6,16.1,5.3,16.1,5.1,16.4z" class="st1"></path>
<path d="M4.7,16c-0.4,0.4-1,0.3-1.3,0s-0.2-0.9,0.3-1.2s1-0.3,1.3,0C5.2,15.1,5.1,15.6,4.7,16z M3.9,15.1
	c-0.2,0.2-0.3,0.5-0.2,0.6c0.2,0.2,0.4,0.2,0.7,0c0.2-0.2,0.3-0.5,0.2-0.7C4.5,14.8,4.2,14.9,3.9,15.1z" class="st1"></path>
<path d="M4.5,14.1l-1.6,0.9l-0.3-0.6c-0.2-0.4-0.1-0.9,0.4-1.1c0.5-0.3,1-0.2,1.2,0.2L4.5,14.1L4.5,14.1z M3.2,13.7
	c-0.3,0.1-0.4,0.4-0.2,0.6l0.1,0.2L4,14l-0.1-0.2C3.7,13.6,3.4,13.6,3.2,13.7z" class="st1"></path>
<path d="M3.7,12.4l-1.9,0.3l-0.2-1.1l0.4-0.1l0.1,0.7l0.3-0.1l-0.1-0.7l0.4-0.1l0.1,0.7l0.3-0.1l-0.1-0.7l0.4-0.1
	L3.7,12.4L3.7,12.4z" class="st1"></path>
<path d="M3.5,10.2l-1.1,0.6l1.1,0v0.4l-1.9,0v-0.4l1-0.6l-1,0V9.9l1.9,0V10.2L3.5,10.2z" class="st1"></path>
<path d="M3.6,9.4l-2,0.2l0.1-0.4l1.4-0.1L1.9,8.4L2,8l1.7,0.9L3.6,9.4L3.6,9.4z" class="st1"></path>
<path d="M3.8,8.4L2.1,7.7l0.2-0.3L4,8.1C4,8.1,3.8,8.5,3.8,8.4z" class="st1"></path>
<path d="M4.4,7.1L3.8,7L3.7,7.2l0.6,0.3L4.1,7.8L2.4,6.9l0.3-0.7C2.9,6,3.2,5.9,3.5,6.1c0.3,0.2,0.4,0.4,0.3,0.5
	l0.8,0.1L4.4,7.1L4.4,7.1z M3.3,6.5c-0.1-0.1-0.2,0-0.3,0.1L2.9,6.8L3.3,7l0.2-0.3C3.5,6.7,3.5,6.5,3.3,6.5L3.3,6.5z" class="st1"></path>
<path d="M3.9,6.2C3.5,5.8,3.4,5.3,3.7,4.9c0.3-0.3,0.8-0.4,1.3,0s0.5,0.9,0.2,1.2C4.9,6.5,4.3,6.5,3.9,6.2z M4.7,5.2
	C4.4,5.1,4.2,5,4,5.2C3.8,5.4,3.9,5.7,4.2,5.9c0.2,0.2,0.5,0.2,0.7,0C5,5.7,4.9,5.4,4.7,5.2z" class="st1"></path>
<path d="M6.5,4.9L5.3,4.4L6,5.2L5.6,5.5L4.5,4l0.3-0.2l1.1,0.5L5.3,3.4l0.3-0.2l1.1,1.5L6.5,4.9L6.5,4.9z" class="st1"></path>
<path d="M8.1,4L7.5,2.9l0.2,1.2L7.6,4.2L6.7,3.3l0.5,1.1L6.9,4.5L6,2.9l0.5-0.2l0.7,0.8l-0.2-1l0.5-0.2l0.8,1.7L8.1,4
	L8.1,4z" class="st1"></path>
<path d="M8.5,3.8L8.1,2l1.1-0.3l0.1,0.4L8.6,2.3l0.1,0.3l0.7-0.2l0.1,0.4L8.7,3l0.1,0.3l0.7-0.2l0.1,0.4L8.5,3.8
	L8.5,3.8z" class="st1"></path>
<path d="M10.8,3.5l-0.7-1l0.1,1.1l-0.4,0L9.6,1.6l0.4,0l0.6,1l0-1l0.4,0l0.1,1.9C11.1,3.4,10.8,3.5,10.8,3.5z" class="st1"></path>
<path d="M11.5,3.5l0.2-1.4l-0.4,0l0.1-0.4l1.2,0.1l-0.1,0.4l-0.4,0l-0.2,1.4L11.5,3.5L11.5,3.5z" class="st1"></path>
<path d="M13.2,3.9V3.6l-0.6-0.2l-0.1,0.2L12,3.5l1.1-1.6l0.5,0.1l0,1.9L13.2,3.9L13.2,3.9z M13.2,2.4l-0.4,0.6l0.4,0.1
	C13.2,3.2,13.2,2.4,13.2,2.4z" class="st1"></path>
<path d="M13.6,4l0.9-1.7l0.4,0.2l-0.6,1.3l0.5,0.3l-0.2,0.4L13.6,4L13.6,4z" class="st1"></path>
<path d="M15.6,4c0.4-0.4,0.9-0.4,1.3-0.1c0.3,0.3,0.2,0.6,0.1,0.8l-0.4-0.1c0.1-0.1,0.1-0.3,0-0.4
	C16.4,4,16.1,4,15.9,4.2s-0.3,0.5-0.1,0.7C15.9,5,16.1,5,16.2,5l0.1,0.4c-0.2,0.1-0.6,0.1-0.8-0.1C15.2,4.9,15.2,4.4,15.6,4L15.6,4z" class="st1"></path>
<path d="M16.7,6.5L17.3,6l-0.4-0.5L16.3,6l-0.2-0.3l1.5-1.1l0.2,0.3l-0.6,0.4l0.4,0.5l0.6-0.4l0.2,0.3l-1.5,1.1
	C16.9,6.8,16.7,6.5,16.7,6.5z" class="st1"></path>
<path d="M17.8,6.5c0.5-0.3,1-0.2,1.2,0.2c0.2,0.4,0,0.9-0.5,1.2c-0.5,0.3-1,0.2-1.2-0.2C17.1,7.2,17.3,6.7,17.8,6.5z
	 M18.4,7.5c0.3-0.2,0.4-0.4,0.3-0.6c-0.1-0.2-0.4-0.2-0.7-0.1c-0.3,0.2-0.4,0.4-0.3,0.6C17.8,7.6,18.1,7.7,18.4,7.5z" class="st1"></path>
<path d="M17.6,8.4l1.8-0.5l0.1,0.4l-1.8,0.5L17.6,8.4z" class="st1"></path>
<path d="M18.7,8.7c0.6-0.1,1,0.2,1.1,0.6c0.1,0.4-0.2,0.6-0.4,0.7l-0.2-0.3c0.1-0.1,0.2-0.2,0.2-0.4
	c0-0.2-0.3-0.4-0.6-0.3c-0.3,0-0.5,0.3-0.5,0.5c0,0.1,0.2,0.2,0.3,0.3l-0.1,0.4c-0.3-0.1-0.5-0.2-0.6-0.6
	C17.8,9.1,18.2,8.7,18.7,8.7L18.7,8.7z" class="st1"></path>
<path d="M18,10.3l1.9-0.1l0.1,1.1l-0.4,0l0-0.7l-0.3,0l0,0.7l-0.4,0l0-0.7l-0.3,0l0,0.7l-0.4,0L18,10.3L18,10.3z" class="st1"></path>
<path d="M13.3,35.8c0.1,0,0.3,0.1,0.3,0.2v1.8c0,0.1,0,0.1-0.1,0.2c-0.5,0.6-1.3,0.9-2.2,0.9c-1.6,0-2.9-1.3-2.9-2.9
	s1.3-2.9,2.9-2.9c0.8,0,1.6,0.3,2.1,0.9c0.1,0.1,0.1,0.3,0,0.3c-0.1,0.1-0.3,0.1-0.4,0c-0.5-0.4-1.1-0.7-1.7-0.7
	c-1.3,0-2.4,1.1-2.4,2.4s1.1,2.4,2.4,2.4c0.7,0,1.3-0.3,1.7-0.7v-1.4h-1.7c-0.1,0-0.3-0.1-0.3-0.3s0.1-0.3,0.3-0.3L13.3,35.8
	L13.3,35.8L13.3,35.8z" class="st1"></path>
<path d="M14.7,33.5c0-0.2,0.1-0.3,0.3-0.3h3.6c0.1,0,0.3,0.1,0.3,0.3s-0.1,0.3-0.3,0.3h-3.3V35c0,0.2-0.1,0.3-0.3,0.3
	s-0.3-0.1-0.3-0.3L14.7,33.5L14.7,33.5z M15,35.8H18c0.1,0,0.3,0.1,0.3,0.3s-0.1,0.3-0.3,0.3h-2.8v2h3.3c0.1,0,0.3,0.1,0.3,0.3
	s-0.1,0.3-0.3,0.3H15c-0.1,0-0.3-0.1-0.3-0.3v-2.5C14.7,35.9,14.8,35.8,15,35.8L15,35.8z" class="st1"></path>
<path d="M24.2,34.4c-0.1,0.1-0.3,0.1-0.4,0c-0.5-0.4-1.1-0.7-1.7-0.7c-1.3,0-2.4,1.1-2.4,2.4s1.1,2.4,2.4,2.4
	c0.7,0,1.3-0.3,1.7-0.7c0.1-0.1,0.3-0.1,0.4,0s0.1,0.3,0,0.3c-0.6,0.5-1.3,0.8-2.1,0.8c-1.6,0-2.9-1.3-2.9-2.9s1.3-2.9,2.9-2.9
	c0.8,0,1.5,0.3,2.1,0.9C24.3,34.1,24.3,34.3,24.2,34.4L24.2,34.4z" class="st1"></path>
<path d="M27.1,34.1l-1.9,4.6c0,0.1-0.1,0.2-0.2,0.2c-0.1,0-0.3-0.1-0.3-0.2c0,0,0-0.1,0-0.1l2.2-5.2
	c0-0.1,0.1-0.2,0.2-0.2c0.1,0,0.2,0.1,0.2,0.2l1.2,3c0,0,0,0.1,0,0.1c0,0.2-0.1,0.2-0.3,0.2c-0.1,0-0.2-0.1-0.2-0.2
	C28,36.5,27.1,34.1,27.1,34.1z M28.7,37c0.1,0,0.2,0.1,0.2,0.2l0.6,1.3c0,0,0,0.1,0,0.1c0,0.2-0.1,0.2-0.3,0.2
	c-0.1,0-0.2-0.1-0.2-0.2l-0.5-1.2h-2.1c-0.1,0-0.3-0.1-0.3-0.3s0.1-0.3,0.3-0.3L28.7,37C28.7,37,28.7,37.1,28.7,37z" class="st1"></path>
</svg>
